<svg width="257" height="145" viewBox="0 0 257 145" fill="none" xmlns="http://www.w3.org/2000/svg">
<path d="M230.878 85.9397L198.203 85.6816L197.924 115.856L230.599 116.114L230.878 85.9397Z" fill="#F6BBBB"/>
<path d="M230.869 89.5308C230.869 89.5308 225.629 92.8313 219.127 96.8672C212.625 100.903 207.385 104.159 207.352 104.146C207.319 104.132 212.592 100.845 219.094 96.8062C225.596 92.767 230.844 89.5139 230.869 89.5308Z" fill="#D9D9D9"/>
<path d="M230.549 96.484C230.549 96.5009 225.309 99.7845 218.807 103.82C212.304 107.856 207.046 111.113 207.031 111.099C207.017 111.086 212.271 107.799 218.774 103.763C225.276 99.7269 230.538 96.467 230.549 96.484Z" fill="#D9D9D9"/>
<path d="M230.736 103.2C230.736 103.217 226.193 106.067 220.568 109.568C214.942 113.068 210.366 115.891 210.355 115.874C210.344 115.857 214.895 113.007 220.524 109.507C226.152 106.006 230.725 103.177 230.736 103.2Z" fill="#D9D9D9"/>
<path d="M223.932 85.8744C223.932 85.8744 220.208 88.2464 215.588 91.103C210.968 93.9596 207.214 96.2944 207.203 96.2774C207.192 96.2605 210.924 93.9054 215.547 91.0454C220.171 88.1854 223.921 85.8574 223.932 85.8744Z" fill="#D9D9D9"/>
<path d="M230.56 110.415C230.56 110.415 228.663 111.703 226.3 113.251C223.937 114.8 222.007 116.05 221.992 116.034C221.978 116.017 223.889 114.749 226.256 113.194C228.623 111.639 230.549 110.398 230.56 110.415Z" fill="#D9D9D9"/>
<path d="M207.589 85.7554L174.914 85.4973L174.635 115.672L207.31 115.93L207.589 85.7554Z" fill="#FCE8E8"/>
<path d="M54.0429 144.389L25.7734 144.44L26.0156 118.063L54.2814 118.283L54.0429 144.389Z" fill="#D9D9D9"/>
<path d="M54.0749 121.712C54.0749 121.712 49.5431 124.565 43.9289 128.059C38.3146 131.553 33.7571 134.369 33.7461 134.352C33.7351 134.335 38.2779 131.495 43.8922 128.005C49.5064 124.515 54.0676 121.699 54.0749 121.712Z" fill="#D9D9D9"/>
<path d="M53.8171 127.727C53.8171 127.727 49.2853 130.584 43.671 134.074C38.0568 137.564 33.4956 140.384 33.4883 140.37C33.481 140.356 38.0201 137.513 43.6343 134.023C49.2486 130.533 53.8097 127.714 53.8171 127.727Z" fill="#D9D9D9"/>
<path d="M53.9677 133.539C53.9677 133.539 50.0377 136.019 45.161 139.045C40.2843 142.071 36.347 144.518 36.336 144.518C36.325 144.518 40.2659 142.037 45.1427 139.011C50.0194 135.985 53.9567 133.525 53.9677 133.539Z" fill="#D9D9D9"/>
<path d="M48.0895 118.547C48.0895 118.547 44.8678 120.58 40.8717 123.074C36.8757 125.568 33.6245 127.561 33.6172 127.547C33.6099 127.534 36.8353 125.514 40.835 123.024C44.8347 120.533 48.0785 118.534 48.0895 118.547Z" fill="#D9D9D9"/>
<path d="M53.8381 139.774C53.8381 139.774 52.1979 140.889 50.1503 142.23C48.1028 143.572 46.4368 144.65 46.4258 144.636C46.4148 144.623 48.0661 143.521 50.1136 142.18C52.1612 140.838 53.8271 139.774 53.8381 139.774Z" fill="#D9D9D9"/>
<path d="M33.9484 118.436L5.68359 118.213L5.44186 144.314L33.7066 144.537L33.9484 118.436Z" fill="#FAFAFA"/>
<path d="M58.6251 11.8127V36.6818H19.9491L18.5547 11.989L58.6251 11.8127Z" fill="#D9D9D9"/>
<path d="M18.5547 11.9891V36.6311H57.2344V11.9891L18.5547 11.9891Z" fill="#FAFAFA"/>
<path d="M57.4139 36.8002H18.3672V11.8193H57.4139V36.8002ZM18.7341 36.4613H57.0469V12.1582H18.7341V36.4613Z" fill="#D9D9D9"/>
<path d="M53.0448 15.0488H22.7461V33.5676H53.0448V15.0488Z" fill="#FAFAFA"/>
<path d="M53.0399 15.0488H52.8968H52.4675H50.8016L44.5635 15.0691L22.7522 15.1098L22.8366 15.0285C22.8366 20.6875 22.8366 26.9564 22.8366 33.5473L22.7412 33.4592L53.0399 33.4761L52.9629 33.5473C52.9629 27.912 52.9959 23.2899 53.0032 20.0741C53.0032 18.4645 53.0032 17.2073 53.0216 16.3466C53.0216 15.9231 53.0216 15.5944 53.0216 15.3673C53.0216 15.1403 53.0216 15.0285 53.0216 15.0285C53.0216 15.0285 53.0216 15.1369 53.0216 15.3673C53.0216 15.5978 53.0216 15.9129 53.0216 16.3331C53.0216 17.1904 53.0216 18.4408 53.0399 20.0606C53.0399 23.2899 53.0619 27.9255 53.0803 33.5778V33.6489H53.0032H22.7045H22.6055V33.5608C22.6055 26.9699 22.6055 20.701 22.6055 15.042V14.9607H22.6935L44.5598 15.0014L50.7979 15.0217H52.4418H52.8638L53.0399 15.0488Z" fill="#D9D9D9"/>
<path d="M18.5547 11.9177C18.7921 12.0255 19.015 12.1586 19.2189 12.3142C19.6152 12.5785 20.1546 12.9546 20.7343 13.385C21.3141 13.8153 21.8352 14.222 22.2021 14.527C22.4093 14.6792 22.5954 14.8545 22.7562 15.0488C22.0131 14.5733 21.2966 14.0632 20.6096 13.5205C19.888 13.0277 19.2016 12.4923 18.5547 11.9177Z" fill="#D9D9D9"/>
<path d="M57.2296 11.9888C56.5915 12.5646 55.911 13.099 55.193 13.5882C54.5132 14.1213 53.7934 14.6093 53.0391 15.0487C53.6751 14.4707 54.3557 13.9362 55.0756 13.4493C55.7532 12.9135 56.4732 12.4254 57.2296 11.9888Z" fill="#D9D9D9"/>
<path d="M57.2029 36.6341L52.9023 33.4048L57.2029 36.6341Z" fill="#FAFAFA"/>
<path d="M52.9023 33.4048C53.6737 33.8727 54.4093 34.389 55.104 34.95C55.8444 35.4689 56.5445 36.0351 57.1993 36.6443C56.4286 36.1755 55.6931 35.6592 54.9976 35.0991C54.2582 34.5791 53.5581 34.013 52.9023 33.4048Z" fill="#D9D9D9"/>
<path d="M18.5547 36.631C19.1831 36.0574 19.8564 35.5273 20.5692 35.0451C21.2423 34.5183 21.9547 34.0359 22.7012 33.6016C22.071 34.1723 21.3978 34.7011 20.6866 35.184C20.0142 35.7126 19.3017 36.1961 18.5547 36.631Z" fill="#D9D9D9"/>
<path d="M28.8906 20.8193V27.0205H47.9571V20.8193H28.8906Z" fill="#D9D9D9"/>
<path d="M233.516 11.1621H194.965V62.7606H233.516V11.1621Z" fill="#D9D9D9"/>
<path d="M231.586 11.1621H193.035V62.7606H231.586V11.1621Z" fill="#FAFAFA"/>
<path d="M226.791 16.7534H197.82V57.1762H226.791V16.7534Z" fill="#FAFAFA"/>
<path d="M226.79 57.1758C226.79 57.1758 226.79 57.1047 226.79 56.9759C226.79 56.8472 226.79 56.654 226.79 56.4032C226.79 55.895 226.79 55.1528 226.79 54.1871C226.79 52.2488 226.79 49.4261 226.764 45.8579C226.764 38.7418 226.738 28.6369 226.716 16.753L226.815 16.8411H197.845L197.951 16.7463C197.951 31.995 197.951 46.0544 197.929 57.1691L197.845 57.0911L218.933 57.1318L224.76 57.1521H226.287H226.819H226.305H224.793H218.985L197.845 57.1928H197.764V57.1182C197.764 46.0036 197.764 31.9442 197.742 16.6954V16.5972H197.838H226.808H226.903V16.7666C226.881 28.6742 226.867 38.7926 226.856 45.9324C226.856 49.4905 226.834 52.3064 226.83 54.2379C226.83 55.1969 226.83 55.9322 226.83 56.4371C226.83 56.6811 226.83 56.8709 226.83 56.9996C226.83 57.1284 226.79 57.1758 226.79 57.1758Z" fill="#D9D9D9"/>
<path d="M231.693 11.1621C231.495 11.489 231.265 11.7986 231.006 12.0872C230.559 12.6395 229.906 13.3918 229.197 14.2051C228.489 15.0184 227.796 15.7367 227.293 16.2383C227.037 16.5276 226.753 16.7953 226.445 17.038C226.663 16.7236 226.908 16.4266 227.179 16.1502L229.036 14.0797L230.871 11.9991C231.121 11.7009 231.396 11.421 231.693 11.1621Z" fill="#D9D9D9"/>
<path d="M226.938 57.0437C228.377 59.1593 230.072 61.1169 231.99 62.8789L226.938 57.0437Z" fill="#FAFAFA"/>
<path d="M231.99 62.8789C231.669 62.6623 231.374 62.4146 231.11 62.1402C230.438 61.5085 229.801 60.8457 229.202 60.1544C228.603 59.4631 228.043 58.7437 227.525 57.9993C227.294 57.7005 227.097 57.3802 226.938 57.0437C227.197 57.3206 227.434 57.6151 227.646 57.9247C228.071 58.4737 228.669 59.2294 229.367 60.0325C230.064 60.8356 230.728 61.5438 231.201 62.0453C231.486 62.305 231.75 62.5836 231.99 62.8789Z" fill="#D9D9D9"/>
<path d="M193.023 62.7233L198.073 56.9626L193.023 62.7233Z" fill="#FAFAFA"/>
<path d="M198.073 56.9692C197.313 57.9868 196.498 58.9674 195.629 59.9072C194.814 60.8868 193.944 61.8267 193.023 62.7231C193.781 61.7046 194.597 60.7239 195.467 59.7852C196.282 58.8055 197.152 57.8656 198.073 56.9692Z" fill="#D9D9D9"/>
<path d="M193.035 11.1621C193.906 12.0232 194.724 12.9283 195.486 13.873C196.305 14.7745 197.069 15.7181 197.772 16.6991C196.903 15.8368 196.085 14.9319 195.321 13.9882C194.504 13.0854 193.741 12.1419 193.035 11.1621Z" fill="#D9D9D9"/>
<path d="M217.768 24.9607H208.066V50.3957H217.768V24.9607Z" fill="#D9D9D9"/>
<path d="M183.343 3.50049H162.328V31.6294H183.343V3.50049Z" fill="#D9D9D9"/>
<path d="M182.296 3.50049H161.281V31.6294H182.296V3.50049Z" fill="#FAFAFA"/>
<path d="M179.688 6.54663H163.895V28.5828H179.688V6.54663Z" fill="#FAFAFA"/>
<path d="M179.688 28.5827C179.688 28.5827 179.688 28.5454 179.688 28.4742C179.688 28.4031 179.688 28.298 179.688 28.1625C179.688 27.8846 179.688 27.4848 179.688 26.9528C179.688 25.8989 179.688 24.3571 179.688 22.4154C179.688 18.5287 179.688 13.0255 179.662 6.54651L179.717 6.59395H163.939L163.997 6.54312C163.997 14.8554 163.997 22.5204 163.997 28.5691L163.95 28.5285L175.446 28.5488H178.624H179.457H178.631H175.464L163.939 28.5725H163.895V28.5285C163.895 22.4696 163.895 14.8046 163.895 6.50246V6.44824H163.953H179.732H179.783V6.49568C179.783 12.9883 179.783 18.5015 179.758 22.3951C179.758 24.3334 179.758 25.8718 179.758 26.9256C179.758 27.4475 179.758 27.8474 179.758 28.1218C179.758 28.2574 179.758 28.359 179.758 28.4302L179.688 28.5827Z" fill="#D9D9D9"/>
<path d="M182.355 3.50049C182.25 3.67816 182.127 3.8461 181.988 4.002C181.745 4.30359 181.397 4.71361 181.001 5.15752C180.604 5.60143 180.23 5.99451 179.955 6.26221C179.817 6.42386 179.663 6.57358 179.496 6.70951C179.616 6.53772 179.751 6.37562 179.9 6.22494C180.179 5.90641 180.527 5.5201 180.909 5.08975L181.922 3.95456C182.052 3.7927 182.197 3.64085 182.355 3.50049Z" fill="#D9D9D9"/>
<path d="M179.773 28.5115C180.557 29.665 181.48 30.7325 182.526 31.6934L179.773 28.5115Z" fill="#FAFAFA"/>
<path d="M182.526 31.6934C182.35 31.5757 182.189 31.4404 182.045 31.2901C181.679 30.9463 181.332 30.5855 181.006 30.2092C180.639 29.7653 180.309 29.3451 180.093 29.0333C179.965 28.8712 179.858 28.6961 179.773 28.5115C179.906 28.6647 180.029 28.8254 180.14 28.9927C180.372 29.2909 180.698 29.7043 181.08 30.1414C181.461 30.5785 181.814 30.9648 182.085 31.2393C182.246 31.379 182.393 31.5309 182.526 31.6934Z" fill="#D9D9D9"/>
<path d="M161.273 31.6093L164.026 28.4714L161.273 31.6093Z" fill="#FAFAFA"/>
<path d="M164.026 28.4714C163.612 29.0265 163.167 29.5614 162.694 30.0742C162.249 30.6079 161.775 31.1202 161.273 31.6093C161.686 31.0536 162.131 30.5185 162.605 30.0065C163.05 29.4729 163.524 28.9606 164.026 28.4714Z" fill="#D9D9D9"/>
<path d="M161.281 3.50049C161.757 3.9674 162.203 4.45958 162.617 4.97454C163.062 5.46791 163.478 5.98256 163.865 6.51636C163.39 6.04691 162.944 5.55368 162.529 5.03892C162.082 4.54837 161.665 4.03473 161.281 3.50049Z" fill="#D9D9D9"/>
<path d="M174.768 11.0198H169.48V24.886H174.768V11.0198Z" fill="#D9D9D9"/>
<path d="M253.31 144.349C253.31 144.396 196.602 144.437 126.662 144.437C56.7224 144.437 0 144.396 0 144.349C0 144.301 56.6968 144.261 126.662 144.261C196.628 144.261 253.31 144.298 253.31 144.349Z" fill="#353535"/>
<path d="M226.165 144.352L195.242 144.362L195.506 115.81L226.425 116.054L226.165 144.352Z" fill="#E43434"/>
<g opacity="0.4">
<path d="M226.393 119.463C226.393 119.463 221.436 122.587 215.297 126.406C209.158 130.225 204.167 133.305 204.156 133.288C204.145 133.271 209.11 130.164 215.253 126.345C221.395 122.526 226.382 119.442 226.393 119.463Z" fill="#FAFAFA"/>
</g>
<g opacity="0.4">
<path d="M226.108 126.041C226.108 126.041 221.151 129.168 215.012 132.997C208.873 136.827 203.882 139.9 203.871 139.883C203.86 139.866 208.829 136.759 214.968 132.94C221.107 129.121 226.09 126.027 226.108 126.041Z" fill="#FAFAFA"/>
</g>
<g opacity="0.4">
<path d="M226.275 132.396C226.275 132.396 221.978 135.107 216.654 138.421C211.329 141.735 207.003 144.406 206.988 144.389C206.974 144.372 211.285 141.678 216.61 138.364C221.934 135.05 226.26 132.379 226.275 132.396Z" fill="#FAFAFA"/>
</g>
<g opacity="0.4">
<path d="M219.861 116.003C219.861 116.003 216.338 118.236 211.964 120.953C207.59 123.671 204.031 125.88 204.02 125.846C204.009 125.813 207.542 123.613 211.916 120.892C216.29 118.171 219.839 115.986 219.861 116.003Z" fill="#FAFAFA"/>
</g>
<g opacity="0.4">
<path d="M226.133 139.221C226.133 139.238 224.339 140.441 222.097 141.908C219.854 143.375 218.023 144.555 218.023 144.541C218.023 144.527 219.814 143.321 222.06 141.85C224.306 140.38 226.122 139.204 226.133 139.221Z" fill="#FAFAFA"/>
</g>
<path d="M204.386 115.888L173.469 115.644L173.204 144.195L204.122 144.44L204.386 115.888Z" fill="#E43434"/>
<path opacity="0.2" d="M204.386 115.888L173.469 115.644L173.204 144.195L204.122 144.44L204.386 115.888Z" fill="#FAFAFA"/>
<path d="M256.485 116.262L226.059 116.022L225.797 144.292L256.223 144.532L256.485 116.262Z" fill="#F9D2D2"/>
<path d="M234.529 144.389L204.102 144.349L204.362 115.84L234.789 116.081L234.529 144.389Z" fill="#E43434"/>
<path d="M256.451 119.605C256.451 119.605 251.574 122.682 245.531 126.44C239.487 130.198 234.577 133.217 234.566 133.217C234.555 133.217 239.443 130.14 245.487 126.382C251.53 122.624 256.44 119.588 256.451 119.605Z" fill="#909090"/>
<path d="M256.182 126.081C256.182 126.098 251.305 129.158 245.261 132.912C239.218 136.667 234.312 139.706 234.297 139.689C234.282 139.672 239.177 136.612 245.221 132.854C251.264 129.097 256.16 126.064 256.182 126.081Z" fill="#909090"/>
<path d="M256.334 132.336C256.334 132.353 252.107 135.006 246.867 138.266C241.627 141.526 237.37 144.152 237.356 144.135C237.341 144.118 241.583 141.465 246.823 138.205C252.063 134.945 256.323 132.319 256.334 132.336Z" fill="#909090"/>
<path d="M249.998 116.199C249.998 116.216 246.531 118.398 242.23 121.072C237.93 123.745 234.429 125.904 234.418 125.88C234.407 125.856 237.886 123.684 242.186 121.007C246.487 118.33 249.987 116.182 249.998 116.199Z" fill="#909090"/>
<path d="M256.177 139.052C256.177 139.069 254.412 140.252 252.21 141.695C250.008 143.139 248.21 144.301 248.199 144.284C248.188 144.267 249.964 143.084 252.166 141.641C254.368 140.197 256.177 139.035 256.177 139.052Z" fill="#909090"/>
<path d="M76.6484 58.0581V88.2676H104.778C104.746 86.2659 105.145 84.2782 105.952 82.4201C106.759 80.5621 107.958 78.8708 109.479 77.4446C111.001 76.0185 112.814 74.8859 114.814 74.1129C116.814 73.3398 118.96 72.9418 121.128 72.9418C123.296 72.9418 125.442 73.3398 127.442 74.1129C129.441 74.8859 131.255 76.0185 132.776 77.4446C134.297 78.8708 135.496 80.5621 136.304 82.4201C137.111 84.2782 137.509 86.2659 137.477 88.2676H165.365V58.0581H76.6484Z" fill="#E43434"/>
<path opacity="0.4" d="M76.6484 58.0581V88.2676H104.778C104.746 86.2659 105.145 84.2782 105.952 82.4201C106.759 80.5621 107.958 78.8708 109.479 77.4446C111.001 76.0185 112.814 74.8859 114.814 74.1129C116.814 73.3398 118.96 72.9418 121.128 72.9418C123.296 72.9418 125.442 73.3398 127.442 74.1129C129.441 74.8859 131.255 76.0185 132.776 77.4446C134.297 78.8708 135.496 80.5621 136.304 82.4201C137.111 84.2782 137.509 86.2659 137.477 88.2676H165.365V58.0581H76.6484Z" fill="#0C0C0C"/>
<path d="M56.4141 58.058V88.2675H84.5441C84.5116 86.2658 84.9105 84.2781 85.7176 82.42C86.5246 80.5619 87.7237 78.8707 89.2451 77.4445C90.7665 76.0183 92.5798 74.8858 94.5795 74.1128C96.5793 73.3397 98.7255 72.9416 100.893 72.9416C103.061 72.9416 105.207 73.3397 107.207 74.1128C109.207 74.8858 111.02 76.0183 112.542 77.4445C114.063 78.8707 115.262 80.5619 116.069 82.42C116.876 84.2781 117.275 86.2658 117.243 88.2675H145.13V58.058H56.4141Z" fill="#E43434"/>
<path d="M165.378 59.6837C165.378 59.6837 160.898 62.564 155.346 66.078C149.794 69.592 145.288 72.4316 145.273 72.4147C145.259 72.3978 149.754 69.5378 155.306 66.0204C160.858 62.503 165.364 59.6667 165.378 59.6837Z" fill="#E43434"/>
<path d="M165.539 65.4515C165.539 65.4684 161.058 68.3284 155.51 71.8458C149.962 75.3632 145.449 78.1995 145.438 78.1825C145.427 78.1656 149.914 75.3022 155.466 71.7882C161.018 68.2742 165.539 65.4345 165.539 65.4515Z" fill="#E43434"/>
<path d="M165.34 71.4359C165.34 71.4359 160.863 74.3128 155.311 77.8302C149.759 81.3476 145.249 84.1805 145.238 84.1669C145.227 84.1533 149.715 81.2866 155.263 77.7624C160.811 74.2383 165.329 71.4189 165.34 71.4359Z" fill="#E43434"/>
<path d="M165.176 77.2135C165.176 77.2304 161.294 79.7143 156.48 82.7606C151.665 85.807 147.765 88.2671 147.75 88.2671C147.735 88.2671 151.632 85.7663 156.447 82.7166C161.261 79.6668 165.176 77.1965 165.176 77.2135Z" fill="#E43434"/>
<path d="M157.071 58.0581L156.954 58.1394L156.613 58.3665L155.343 59.1831L151.145 61.8534L146.933 64.51L145.652 65.3064L145.285 65.5198C145.245 65.5458 145.203 65.5696 145.16 65.591C145.198 65.5617 145.237 65.5346 145.278 65.5097L145.619 65.2826L146.885 64.4694L151.086 61.7957L155.314 59.1255L156.594 58.3292L156.961 58.1157L157.071 58.0581Z" fill="#E43434"/>
<path d="M108.693 74.9295C108.693 74.9295 104.003 77.9386 98.1947 81.6186C92.386 85.2987 87.6671 88.2671 87.6524 88.2671C87.6377 88.2671 92.3419 85.2546 98.1507 81.5746C103.959 77.8946 108.667 74.9126 108.693 74.9295Z" fill="#E43434"/>
<path d="M106.015 82.5066L105.927 82.571L105.666 82.7438L104.698 83.3707L101.491 85.4039L98.2725 87.437L97.2927 88.0368L97.0249 88.1995L96.9258 88.2672L97.0138 88.2029L97.2744 88.03L98.2431 87.4031L101.45 85.37L104.668 83.3368L105.648 82.7302L105.916 82.5676L106.015 82.5066Z" fill="#E43434"/>
<path d="M100.388 73.2994C100.388 73.2994 97.1329 75.4037 93.0928 77.9655C89.0527 80.5273 85.7539 82.5876 85.7539 82.5706C85.7539 82.5537 89.0087 80.4663 93.0525 77.9079C97.0962 75.3495 100.377 73.2858 100.388 73.2994Z" fill="#E43434"/>
<path d="M165.476 83.4177C165.476 83.4346 163.858 84.5427 161.836 85.8914C159.815 87.24 158.167 88.3278 158.149 88.3108C158.13 88.2939 159.767 87.1858 161.789 85.8371C163.811 84.4885 165.462 83.4007 165.476 83.4177Z" fill="#E43434"/>
<path d="M169.983 88.2532H141.871V114.213H169.983V88.2532Z" fill="#871212"/>
<path d="M149.952 88.2532H121.84V114.213H149.952V88.2532Z" fill="#5A0C0C"/>
<path d="M169.988 91.3502C169.988 91.3502 165.508 94.2305 159.959 97.7445C154.411 101.258 149.898 104.098 149.887 104.081C149.876 104.064 154.363 101.204 159.915 97.6869C165.467 94.1695 169.977 91.3332 169.988 91.3502Z" fill="#909090"/>
<path d="M169.785 97.3348C169.785 97.3517 165.308 100.215 159.756 103.729C154.204 107.243 149.695 110.083 149.684 110.066C149.673 110.049 154.16 107.189 159.712 103.671C165.264 100.154 169.774 97.3178 169.785 97.3348Z" fill="#909090"/>
<path d="M169.981 103.112C169.981 103.129 166.098 105.613 161.288 108.663C156.477 111.713 152.562 114.169 152.551 114.153C152.54 114.136 156.429 111.648 161.244 108.599C166.058 105.549 169.97 103.095 169.981 103.112Z" fill="#909090"/>
<path d="M163.998 88.2669C163.998 88.2669 160.817 90.3238 156.865 92.828C152.913 95.3322 149.699 97.345 149.688 97.3281C149.677 97.3112 152.869 95.2712 156.821 92.767C160.773 90.2628 163.987 88.2364 163.998 88.2669Z" fill="#909090"/>
<path d="M169.91 109.317C169.91 109.334 168.292 110.442 166.27 111.794C164.248 113.146 162.601 114.227 162.582 114.21C162.564 114.193 164.2 113.089 166.222 111.737C168.244 110.385 169.895 109.304 169.91 109.317Z" fill="#909090"/>
<path d="M108.018 88.2532H79.9062V114.213H108.018V88.2532Z" fill="#871212"/>
<path d="M87.9789 88.2532H59.8672V114.213H87.9789V88.2532Z" fill="#5A0C0C"/>
<path d="M108.011 91.3502C108.011 91.3502 103.527 94.2305 97.9789 97.7547C92.4307 101.279 87.921 104.108 87.9063 104.091C87.8916 104.074 92.3867 101.214 97.9386 97.697C103.49 94.1797 107.997 91.3332 108.011 91.3502Z" fill="#909090"/>
<path d="M107.82 97.3348C107.82 97.3517 103.34 100.215 97.7914 103.729C92.2432 107.243 87.7298 110.083 87.7188 110.066C87.7078 110.049 92.1955 107.189 97.7474 103.671C103.299 100.154 107.809 97.3178 107.82 97.3348Z" fill="#909090"/>
<path d="M108.012 103.112C108.012 103.129 104.129 105.613 99.3151 108.663C94.5008 111.713 90.5892 114.169 90.5781 114.153C90.5671 114.136 94.4604 111.648 99.2748 108.599C104.089 105.549 107.997 103.095 108.012 103.112Z" fill="#909090"/>
<path d="M102.03 88.2668C102.03 88.2668 98.8485 90.3237 94.8965 92.8279C90.9445 95.3321 87.752 97.3314 87.719 97.3144C87.686 97.2975 90.9004 95.2575 94.8561 92.7533C98.8118 90.2492 102.019 88.2363 102.03 88.2668Z" fill="#909090"/>
<path d="M107.938 109.317C107.938 109.334 106.32 110.442 104.298 111.794C102.276 113.146 100.629 114.227 100.629 114.21C100.629 114.193 102.247 113.089 104.269 111.737C106.291 110.385 107.938 109.304 107.938 109.317Z" fill="#909090"/>
<path d="M164.982 114.21H145.148V144.406H164.982V114.21Z" fill="#E43434"/>
<path opacity="0.4" d="M164.982 114.21H145.148V144.406H164.982V114.21Z" fill="#0C0C0C"/>
<path d="M145.145 114.21H56.4141V144.406H145.145V114.21Z" fill="#E43434"/>
<path d="M164.811 115.935C164.811 115.935 160.448 118.798 155.047 122.295C149.645 125.792 145.249 128.611 145.238 128.595C145.227 128.578 149.594 125.735 155.003 122.234C160.411 118.734 164.811 115.918 164.811 115.935Z" fill="#E43434"/>
<path d="M164.983 121.669C164.983 121.686 160.624 124.532 155.219 128.029C149.814 131.526 145.421 134.349 145.41 134.332C145.399 134.315 149.769 131.469 155.175 127.972C160.58 124.475 164.972 121.655 164.983 121.669Z" fill="#E43434"/>
<path d="M164.788 127.622C164.788 127.622 160.425 130.486 155.023 133.983C149.622 137.48 145.226 140.299 145.215 140.282C145.204 140.265 149.574 137.422 154.979 133.922C160.384 130.421 164.773 127.605 164.788 127.622Z" fill="#E43434"/>
<path d="M164.624 133.369C164.624 133.369 160.848 135.857 156.162 138.886C151.476 141.916 147.663 144.366 147.652 144.349C147.641 144.332 151.428 141.861 156.118 138.829C160.807 135.796 164.613 133.353 164.624 133.369Z" fill="#E43434"/>
<path d="M156.737 114.315L156.626 114.397L156.293 114.62L155.056 115.433L150.961 118.087L146.858 120.73L145.611 121.523L145.27 121.736C145.231 121.761 145.19 121.784 145.148 121.804L145.262 121.723L145.596 121.499L146.829 120.689L150.917 118.029L155.019 115.389L156.267 114.596L156.608 114.383L156.737 114.315Z" fill="#E43434"/>
<path d="M164.907 139.54C164.907 139.557 163.333 140.658 161.362 142C159.392 143.342 157.788 144.423 157.774 144.406C157.759 144.389 159.348 143.288 161.318 141.946C163.289 140.604 164.896 139.523 164.907 139.54Z" fill="#E43434"/>
<path d="M74.8086 58.0845L174.977 57.949L124.82 12.0637L102.311 12.0942L74.8086 58.0845Z" fill="#E43434"/>
<path d="M52.3008 58.1149L152.47 57.9794L102.312 12.0941L52.3008 58.1149Z" fill="#E43434"/>
<g opacity="0.4">
<path d="M154.291 39.0198L154.159 39.1079L153.792 39.3586L152.383 40.2702L147.708 43.2522L143.022 46.2172L141.599 47.1084L141.206 47.349C141.118 47.4032 141.07 47.4269 141.07 47.4269C141.111 47.3943 141.154 47.3638 141.199 47.3354L141.566 47.0847L142.978 46.1765L147.65 43.1946L152.339 40.2295L153.767 39.3383L154.156 39.0977C154.199 39.0695 154.245 39.0435 154.291 39.0198Z" fill="#FAFAFA"/>
<path d="M159.08 43.4922L158.952 43.5837L158.585 43.8344L157.172 44.7426L152.497 47.7246L147.812 50.6896L146.388 51.5808L145.999 51.8214L145.859 51.9027L145.988 51.8112L146.355 51.5605L147.767 50.6489L152.442 47.667L157.114 44.7019L158.537 43.8107L158.926 43.5701L159.08 43.4922Z" fill="#FAFAFA"/>
<path d="M163.721 47.7859L163.593 47.8774L163.226 48.1281L161.813 49.0397C160.591 49.8191 158.951 50.8628 157.142 52.0217L152.452 54.9833L151.028 55.8779L150.639 56.1151L150.5 56.1964L150.628 56.1049L150.995 55.8542L152.408 54.9427L157.083 51.9607L161.769 48.999L163.193 48.1044L163.582 47.8672L163.721 47.7859Z" fill="#FAFAFA"/>
<path d="M168.734 52.2319C168.734 52.2319 168.705 52.2557 168.649 52.2963L168.393 52.4657L167.446 53.0825L164.309 55.0885L161.145 57.0912L160.188 57.6876L159.924 57.8469L159.828 57.8977L159.916 57.8333L160.169 57.6639L161.116 57.0505L164.253 55.0411C165.468 54.2787 166.562 53.584 167.406 53.052L168.367 52.4556C168.462 52.398 168.55 52.3471 168.627 52.2963L168.734 52.2319Z" fill="#FAFAFA"/>
<path d="M149.403 34.543L149.271 34.6345L148.904 34.8852L147.495 35.7968L142.798 38.7923L138.112 41.7573C137.529 42.1233 137.048 42.4351 136.689 42.6519L136.296 42.8891L136.16 42.9705C136.201 42.9378 136.244 42.9073 136.289 42.879L136.656 42.6282L138.068 41.7167L142.739 38.7347L147.451 35.7425L148.878 34.8513L149.267 34.6141L149.403 34.543Z" fill="#FAFAFA"/>
<path d="M144.526 30.0703L144.394 30.1618L144.027 30.4126L142.6 31.3377L137.928 34.3196L133.261 37.2677L131.837 38.1589L131.444 38.3995C131.356 38.4537 131.309 38.4775 131.309 38.4775C131.35 38.4449 131.392 38.4143 131.437 38.386L131.804 38.1352L133.217 37.2271L137.888 34.2451L142.574 31.28L144.001 30.3888L144.39 30.1482C144.434 30.12 144.479 30.094 144.526 30.0703Z" fill="#FAFAFA"/>
<path d="M139.635 25.5945C139.635 25.5945 139.591 25.6284 139.503 25.686L139.136 25.9367L137.723 26.8483L133.052 29.8303L128.366 32.7953L126.942 33.6865L126.55 33.9237L126.414 34.005C126.455 33.9724 126.498 33.9419 126.542 33.9135L126.909 33.6628L128.322 32.7512L132.993 29.7693L137.679 26.8076L139.125 25.9164L139.514 25.6792L139.635 25.5945Z" fill="#FAFAFA"/>
<path d="M134.76 21.1211L134.628 21.2126L134.261 21.4633L132.848 22.3715L128.177 25.3535L123.491 28.3185L122.067 29.2097L121.675 29.4503C121.587 29.5045 121.539 29.5283 121.539 29.5283L121.667 29.4401L122.034 29.1894L123.447 28.2779L128.118 25.2959L132.804 22.3308L134.232 21.4396L134.621 21.199C134.666 21.1707 134.712 21.1447 134.76 21.1211Z" fill="#FAFAFA"/>
<path d="M129.872 16.6477L129.74 16.7358L129.373 16.9866L127.96 17.8981L123.289 20.8801L118.581 23.8451L117.157 24.7363L116.764 24.9769C116.72 25.0053 116.673 25.0313 116.625 25.0549L116.757 24.9634L117.124 24.7126L118.537 23.8045L123.23 20.8326L127.916 17.8676L129.343 16.9764L129.732 16.7358C129.777 16.704 129.823 16.6746 129.872 16.6477Z" fill="#FAFAFA"/>
<path d="M124.986 12.1716L124.854 12.2631L124.487 12.5139L123.075 13.4254L118.403 16.404L113.718 19.3691C113.134 19.735 112.653 20.0468 112.294 20.2636L111.901 20.5008L111.762 20.5822C111.762 20.5822 111.806 20.5483 111.894 20.4907L112.261 20.2399L113.674 19.3284L118.345 16.3464L123.031 13.378L124.451 12.4902L124.84 12.253L124.986 12.1716Z" fill="#FAFAFA"/>
<path d="M112.958 12.236C112.958 12.236 111.615 13.1306 109.935 14.2014C108.254 15.2722 106.878 16.1227 106.863 16.1058C106.849 16.0888 108.206 15.2112 109.891 14.1404C111.575 13.0696 112.947 12.219 112.958 12.236Z" fill="#FAFAFA"/>
</g>
<path opacity="0.2" d="M52.3008 58.1149L152.47 57.9794L102.312 12.0941L52.3008 58.1149Z" fill="#FAFAFA"/>
<path d="M192.274 142.824L192.201 139.914L186.289 140.002L186.348 144.265L186.715 144.281C188.348 144.339 195.019 144.475 196.101 144.153C197.312 143.8 192.274 142.824 192.274 142.824Z" fill="#E43434"/>
<g opacity="0.4">
<path d="M194.732 143.388C194.732 143.388 196.501 143.828 196.284 144.099C196.068 144.37 189.312 144.469 186.344 144.272V144.15L194.215 144.099C194.215 144.099 194.387 143.405 194.732 143.388Z" fill="#FAFAFA"/>
</g>
<path d="M186.262 144.146C186.296 144.15 186.33 144.15 186.364 144.146H186.658L187.733 144.173C188.64 144.19 189.894 144.197 191.278 144.173C192.661 144.15 193.92 144.112 194.826 144.072L195.898 144.014L196.191 143.994H195.898L194.823 144.031C193.916 144.061 192.665 144.095 191.278 144.116C189.891 144.136 188.64 144.133 187.733 144.116H186.658H186.262V144.146Z" fill="#353535"/>
<path d="M194.242 144.18C194.284 144.015 194.348 143.854 194.433 143.703C194.54 143.562 194.663 143.433 194.799 143.316C194.622 143.381 194.474 143.501 194.381 143.655C194.264 143.808 194.214 143.995 194.242 144.18Z" fill="#353535"/>
<path d="M192.476 143.39C192.476 143.39 192.576 143.305 192.66 143.177C192.72 143.105 192.762 143.021 192.782 142.933C192.782 142.933 192.682 143.017 192.598 143.143C192.513 143.268 192.458 143.38 192.476 143.39Z" fill="#353535"/>
<path d="M191.977 143.163C191.977 143.163 192.083 143.119 192.186 143.031C192.289 142.943 192.356 142.865 192.341 142.851C192.326 142.838 192.238 142.899 192.135 142.984C192.032 143.068 191.977 143.163 191.977 143.163Z" fill="#353535"/>
<path d="M191.684 142.652C191.684 142.672 191.819 142.686 191.992 142.686C192.096 142.695 192.201 142.684 192.3 142.652C192.3 142.631 192.161 142.618 191.992 142.618C191.888 142.608 191.782 142.619 191.684 142.652Z" fill="#353535"/>
<path d="M191.559 142.292C191.662 142.352 191.782 142.381 191.904 142.378C192.028 142.4 192.157 142.383 192.27 142.33C192.155 142.313 192.038 142.307 191.922 142.313C191.802 142.293 191.68 142.286 191.559 142.292Z" fill="#353535"/>
<path d="M192.66 142.912C192.782 142.931 192.906 142.931 193.027 142.912C193.168 142.896 193.307 142.867 193.442 142.824C193.522 142.803 193.598 142.772 193.669 142.733C193.692 142.721 193.711 142.706 193.727 142.687C193.743 142.668 193.754 142.647 193.761 142.624C193.767 142.598 193.765 142.571 193.754 142.547C193.744 142.522 193.726 142.501 193.702 142.485C193.556 142.421 193.391 142.406 193.234 142.442C193.077 142.479 192.939 142.565 192.844 142.685C192.787 142.754 192.747 142.834 192.726 142.919C192.719 142.95 192.719 142.983 192.726 143.014C192.766 142.906 192.823 142.805 192.895 142.712C192.98 142.619 193.092 142.551 193.218 142.516C193.291 142.491 193.368 142.479 193.446 142.483C193.524 142.486 193.6 142.504 193.669 142.536C193.732 142.577 193.71 142.641 193.64 142.682C193.574 142.718 193.504 142.746 193.431 142.767C193.304 142.809 193.174 142.843 193.042 142.868C192.807 142.899 192.66 142.899 192.66 142.912Z" fill="#353535"/>
<path d="M192.763 142.926C192.809 142.852 192.824 142.765 192.804 142.682C192.789 142.591 192.752 142.505 192.697 142.428C192.665 142.376 192.619 142.332 192.563 142.302C192.507 142.271 192.443 142.255 192.378 142.255C192.339 142.262 192.305 142.284 192.283 142.314C192.261 142.345 192.253 142.382 192.261 142.418C192.272 142.474 192.296 142.527 192.33 142.574C192.381 142.651 192.443 142.722 192.514 142.784C192.573 142.845 192.647 142.893 192.73 142.923C192.73 142.923 192.657 142.862 192.55 142.75C192.487 142.687 192.431 142.618 192.385 142.543C192.334 142.469 192.294 142.336 192.385 142.32C192.477 142.303 192.58 142.394 192.639 142.465C192.694 142.532 192.732 142.61 192.749 142.692C192.763 142.769 192.768 142.848 192.763 142.926Z" fill="#353535"/>
<path d="M186.363 142.652C186.363 142.652 186.532 142.635 186.8 142.652C187.149 142.682 187.482 142.802 187.76 143C188.038 143.197 188.249 143.463 188.37 143.767C188.462 144 188.473 144.156 188.488 144.156C188.496 144.119 188.496 144.081 188.488 144.044C188.477 143.945 188.455 143.848 188.422 143.753C188.309 143.434 188.095 143.153 187.809 142.946C187.521 142.744 187.173 142.626 186.811 142.608C186.702 142.596 186.593 142.596 186.484 142.608C186.442 142.616 186.401 142.631 186.363 142.652Z" fill="#353535"/>
<path d="M186.934 140.371C186.897 140.744 186.886 141.118 186.901 141.492C186.89 141.867 186.904 142.241 186.942 142.614C186.991 141.867 186.991 141.118 186.942 140.371H186.934Z" fill="#353535"/>
<path d="M189.227 143.655C189.51 143.71 189.8 143.732 190.089 143.72C190.379 143.73 190.669 143.705 190.951 143.644C190.951 143.624 190.566 143.644 190.089 143.644C189.612 143.644 189.227 143.634 189.227 143.655Z" fill="#353535"/>
<path d="M188.07 143.669C188.07 143.669 188.103 143.743 188.144 143.824C188.184 143.906 188.207 143.98 188.229 143.977C188.251 143.974 188.258 143.892 188.229 143.797C188.199 143.702 188.081 143.655 188.07 143.669Z" fill="#353535"/>
<path d="M187.629 143.163C187.629 143.163 187.654 143.231 187.717 143.288C187.779 143.345 187.837 143.379 187.852 143.365C187.866 143.352 187.826 143.298 187.764 143.241C187.702 143.184 187.644 143.163 187.629 143.163Z" fill="#353535"/>
<path d="M186.988 142.954C186.988 142.974 187.073 142.971 187.161 142.998C187.25 143.025 187.312 143.066 187.327 143.056C187.342 143.046 187.29 142.967 187.183 142.933C187.077 142.899 186.985 142.936 186.988 142.954Z" fill="#353535"/>
<path d="M186.547 142.851C186.547 142.868 186.573 142.896 186.624 142.913C186.675 142.93 186.719 142.93 186.723 142.913C186.727 142.896 186.697 142.868 186.65 142.851C186.602 142.834 186.554 142.824 186.547 142.851Z" fill="#353535"/>
<g opacity="0.3">
<path d="M186.372 142.506L192.272 142.33L192.254 141.672L186.32 142.16L186.372 142.506Z" fill="#0C0C0C"/>
</g>
<path d="M197.766 142.228L198.768 139.463L193.176 137.698L191.664 141.723L192.002 141.855C193.517 142.421 199.744 144.637 200.882 144.675C202.151 144.719 197.766 142.228 197.766 142.228Z" fill="#E43434"/>
<g opacity="0.4">
<path d="M199.88 143.519C199.88 143.519 201.381 144.492 201.08 144.678C200.779 144.865 194.394 142.845 191.664 141.723L191.715 141.612L199.139 144.028C199.139 144.028 199.55 143.431 199.88 143.519Z" fill="#FAFAFA"/>
</g>
<path d="M191.629 141.581L191.724 141.622L191.992 141.723L192.994 142.086C193.842 142.388 195.019 142.787 196.329 143.204C197.639 143.621 198.836 143.973 199.702 144.221L200.733 144.502L201.015 144.573L201.114 144.597C201.084 144.583 201.052 144.571 201.019 144.563L200.74 144.478L199.72 144.18C198.854 143.923 197.661 143.563 196.351 143.147C195.041 142.73 193.864 142.34 193.012 142.049L192.003 141.71L191.728 141.618C191.697 141.602 191.664 141.589 191.629 141.581Z" fill="#353535"/>
<path d="M199.109 144.109C199.215 143.966 199.338 143.835 199.476 143.719C199.625 143.621 199.785 143.538 199.953 143.472C199.761 143.486 199.577 143.555 199.428 143.669C199.279 143.783 199.172 143.937 199.12 144.109H199.109Z" fill="#353535"/>
<path d="M197.751 142.824C197.751 142.824 197.876 142.774 198 142.682C198.125 142.591 198.221 142.502 198.206 142.486C198.191 142.469 198.081 142.536 197.956 142.628C197.832 142.719 197.74 142.797 197.751 142.824Z" fill="#353535"/>
<path d="M197.375 142.449C197.375 142.465 197.493 142.448 197.618 142.391C197.742 142.333 197.841 142.286 197.834 142.269C197.827 142.252 197.717 142.269 197.592 142.33C197.467 142.391 197.368 142.432 197.375 142.449Z" fill="#353535"/>
<path d="M197.262 141.872C197.262 141.889 197.379 141.943 197.541 141.997C197.634 142.041 197.737 142.063 197.841 142.062C197.841 142.045 197.724 141.987 197.563 141.936C197.469 141.894 197.366 141.872 197.262 141.872Z" fill="#353535"/>
<path d="M197.305 141.497C197.305 141.497 197.411 141.615 197.595 141.686C197.706 141.744 197.835 141.766 197.962 141.751C197.858 141.701 197.75 141.659 197.639 141.625C197.532 141.573 197.42 141.53 197.305 141.497Z" fill="#353535"/>
<path d="M198.102 142.422C198.215 142.48 198.34 142.518 198.469 142.533C198.604 142.56 198.741 142.575 198.879 142.577C198.962 142.587 199.046 142.587 199.129 142.577C199.155 142.573 199.179 142.565 199.201 142.552C199.223 142.539 199.242 142.522 199.257 142.503C199.273 142.481 199.281 142.455 199.281 142.428C199.281 142.402 199.273 142.376 199.257 142.354C199.144 142.248 198.993 142.182 198.833 142.168C198.672 142.153 198.511 142.19 198.377 142.272C198.297 142.319 198.229 142.381 198.179 142.455C198.157 142.481 198.142 142.511 198.135 142.544C198.21 142.454 198.3 142.376 198.402 142.313C198.514 142.253 198.641 142.223 198.769 142.225C198.926 142.227 199.077 142.285 199.188 142.388C199.228 142.445 199.188 142.499 199.107 142.516C199.03 142.523 198.953 142.523 198.876 142.516C198.741 142.517 198.606 142.508 198.472 142.489C198.241 142.455 198.105 142.411 198.102 142.422Z" fill="#353535"/>
<path d="M198.194 142.486C198.194 142.486 198.282 142.425 198.323 142.269C198.347 142.179 198.347 142.085 198.323 141.994C198.31 141.935 198.282 141.88 198.24 141.834C198.198 141.788 198.144 141.752 198.084 141.73C198.045 141.726 198.006 141.736 197.975 141.759C197.944 141.781 197.923 141.813 197.918 141.849C197.902 141.904 197.902 141.963 197.918 142.018C197.938 142.106 197.97 142.192 198.014 142.272C198.049 142.349 198.103 142.417 198.172 142.472C198.172 142.472 198.12 142.387 198.061 142.252C198.027 142.172 198.001 142.089 197.984 142.005C197.962 141.92 197.984 141.784 198.069 141.798C198.154 141.811 198.223 141.93 198.253 142.011C198.281 142.091 198.289 142.176 198.275 142.259C198.256 142.337 198.229 142.413 198.194 142.486Z" fill="#353535"/>
<path d="M192.266 140.205C192.266 140.205 192.431 140.242 192.677 140.347C192.992 140.487 193.259 140.705 193.448 140.978C193.636 141.25 193.737 141.566 193.741 141.889C193.741 142.14 193.697 142.289 193.708 142.292C193.728 142.26 193.742 142.224 193.748 142.187C193.773 142.091 193.786 141.992 193.788 141.892C193.802 141.556 193.704 141.224 193.507 140.94C193.31 140.657 193.024 140.436 192.688 140.307C192.589 140.266 192.485 140.235 192.379 140.215C192.342 140.206 192.304 140.202 192.266 140.205Z" fill="#353535"/>
<path d="M193.647 138.24C193.477 138.579 193.329 138.928 193.203 139.283C193.06 139.633 192.937 139.989 192.836 140.351C193.006 140.011 193.154 139.663 193.28 139.307C193.424 138.958 193.547 138.602 193.647 138.24Z" fill="#353535"/>
<path d="M194.605 142.045C194.852 142.188 195.117 142.302 195.394 142.384C195.664 142.484 195.946 142.551 196.235 142.584C196.235 142.564 195.868 142.469 195.42 142.323C194.972 142.177 194.616 142.028 194.605 142.045Z" fill="#353535"/>
<path d="M193.496 141.696C193.496 141.696 193.496 141.777 193.496 141.866C193.496 141.954 193.496 142.032 193.518 142.035C193.54 142.038 193.577 141.964 193.566 141.859C193.555 141.754 193.511 141.686 193.496 141.696Z" fill="#353535"/>
<path d="M193.258 141.089C193.258 141.089 193.258 141.164 193.295 141.235C193.331 141.306 193.379 141.361 193.394 141.354C193.409 141.347 193.394 141.279 193.361 141.208C193.328 141.137 193.276 141.083 193.258 141.089Z" fill="#353535"/>
<path d="M192.758 140.686C192.758 140.707 192.831 140.727 192.901 140.781C192.971 140.836 193.019 140.893 193.038 140.886C193.056 140.88 193.038 140.791 192.946 140.73C192.854 140.669 192.758 140.669 192.758 140.686Z" fill="#353535"/>
<path d="M192.379 140.452C192.379 140.452 192.379 140.503 192.426 140.534C192.474 140.564 192.51 140.578 192.525 140.564C192.539 140.55 192.525 140.513 192.474 140.483C192.423 140.452 192.39 140.452 192.379 140.452Z" fill="#353535"/>
<g opacity="0.3">
<path d="M192.336 140.07L197.954 141.751L198.178 141.127L192.413 139.728L192.336 140.07Z" fill="#0C0C0C"/>
</g>
<path d="M201.983 88.2915L195.011 88.5694L184.344 88.2915L185.562 142.282L194.156 142.018C194.156 142.018 194.156 141.422 194.156 140.364L198.695 141.449C198.695 141.449 207.248 125.227 209.091 118.315C210.643 112.547 201.983 88.2915 201.983 88.2915ZM194.141 132.116C193.998 119.657 194.6 98.4641 194.798 95.8583C194.798 95.8583 200.06 114.516 200.108 115.987C200.141 116.895 196.446 125.509 194.141 132.116Z" fill="#353535"/>
<path d="M194.092 128.592C194.117 128.765 194.128 128.939 194.125 129.114C194.125 129.476 194.125 129.958 194.155 130.544C194.177 131.747 194.188 133.414 194.195 135.254C194.203 137.094 194.195 138.758 194.195 139.964C194.195 140.547 194.195 141.028 194.173 141.391C194.178 141.565 194.168 141.74 194.144 141.913C194.119 141.74 194.108 141.565 194.111 141.391C194.111 141.028 194.111 140.547 194.077 139.961C194.059 138.758 194.044 137.091 194.041 135.251C194.037 133.411 194.041 131.747 194.041 130.544C194.041 129.958 194.041 129.476 194.063 129.114C194.058 128.94 194.068 128.765 194.092 128.592Z" fill="#909090"/>
<path d="M189.956 89.0234C189.974 89.1153 189.974 89.2094 189.956 89.3013C189.931 89.5549 189.874 89.805 189.788 90.0468C189.502 90.857 188.915 91.5481 188.132 91.9987C187.349 92.4492 186.419 92.6304 185.505 92.5103C185.231 92.4782 184.963 92.4157 184.705 92.3239C184.609 92.2971 184.519 92.2559 184.438 92.202C184.792 92.2901 185.153 92.358 185.516 92.4053C186.4 92.4927 187.29 92.3042 188.044 91.87C188.798 91.4357 189.373 90.7808 189.677 90.0095C189.794 89.6869 189.887 89.3575 189.956 89.0234Z" fill="#909090"/>
<path d="M195.572 89.1045C195.596 89.1965 195.607 89.2911 195.605 89.3857C195.605 89.5687 195.627 89.833 195.638 90.1583C195.638 90.809 195.671 91.7103 195.678 92.7066V94.1095C195.705 94.5041 195.607 94.8974 195.395 95.2413C195.316 95.3549 195.213 95.4521 195.091 95.5268C194.969 95.6014 194.831 95.6519 194.687 95.675C194.478 95.6953 194.375 95.6411 194.379 95.6344C194.479 95.6368 194.578 95.63 194.676 95.614C194.932 95.5486 195.149 95.3928 195.282 95.1803C195.464 94.8485 195.544 94.4769 195.513 94.1061C195.513 93.6723 195.513 93.2013 195.513 92.7066C195.513 91.7103 195.513 90.8123 195.513 90.1583C195.513 89.8195 195.513 89.5687 195.531 89.3891C195.531 89.293 195.545 89.1973 195.572 89.1045Z" fill="#909090"/>
<path d="M202.624 92.4661C202.547 92.4785 202.467 92.4785 202.39 92.4661C202.174 92.4514 201.961 92.4197 201.751 92.3712C201.057 92.214 200.406 91.9281 199.836 91.5309C199.262 91.1369 198.784 90.6373 198.43 90.0636C198.32 89.8914 198.228 89.7099 198.155 89.5214C198.104 89.3893 198.082 89.3147 198.093 89.3113C198.104 89.3079 198.243 89.5892 198.529 90.006C199.284 91.0978 200.439 91.9016 201.784 92.2696C202.294 92.4085 202.624 92.439 202.624 92.4661Z" fill="#909090"/>
<path d="M194.013 89.6436C194.013 89.6673 193.815 89.6978 193.701 89.9384C193.669 90.0026 193.652 90.0726 193.652 90.1434C193.652 90.2143 193.669 90.2843 193.701 90.3484C193.753 90.4152 193.824 90.4672 193.906 90.4987C193.988 90.5301 194.078 90.5396 194.166 90.5262C194.254 90.5128 194.336 90.477 194.403 90.4228C194.47 90.3687 194.519 90.2983 194.545 90.2197C194.554 90.1495 194.547 90.0783 194.524 90.0109C194.5 89.9436 194.461 89.8818 194.409 89.83C194.222 89.6368 194.013 89.6707 194.017 89.6436C194.02 89.6165 194.057 89.6097 194.149 89.6131C194.279 89.6198 194.403 89.669 194.497 89.752C194.571 89.8131 194.628 89.8895 194.664 89.9749C194.7 90.0603 194.713 90.1523 194.703 90.2434C194.674 90.3549 194.61 90.456 194.519 90.534C194.428 90.6119 194.314 90.6632 194.192 90.6814C194.069 90.6995 193.943 90.6837 193.831 90.6359C193.718 90.5881 193.623 90.5104 193.558 90.4128C193.518 90.3293 193.5 90.2382 193.505 90.147C193.51 90.0557 193.538 89.9669 193.587 89.8876C193.647 89.7818 193.746 89.699 193.866 89.6538C193.961 89.6233 194.013 89.6233 194.013 89.6436Z" fill="#909090"/>
<path d="M183.912 89.8873C183.663 87.8541 184.011 80.1179 184.011 80.1179C183.699 76.4345 182.36 72.4258 182.125 69.7488C181.322 60.6944 189.024 60.9587 189.024 60.9587L191.515 60.6978C194.084 62.4124 196.755 63.551 197.192 66.0687L202.626 89.0232L183.912 89.8873Z" fill="#909090"/>
<path d="M185.34 61.5148C185.693 61.5891 186.053 61.6277 186.415 61.63L189.009 61.7825C190.022 61.8401 190.936 61.9011 191.6 61.9587C191.956 62.0045 192.315 62.026 192.675 62.0231C192.334 61.9095 191.979 61.8377 191.618 61.8096C190.958 61.7147 190.04 61.63 189.024 61.5724C188.008 61.5148 187.087 61.4911 186.419 61.4809C186.059 61.4596 185.697 61.4709 185.34 61.5148Z" fill="#353535"/>
<g opacity="0.2">
<path d="M184.77 70.8442L195.749 78.5669L194.567 73.0943L184.77 70.8442Z" fill="#0C0C0C"/>
</g>
<path d="M202.215 87.2954C202.215 87.3463 198.087 87.5191 192.994 87.6851C187.901 87.8512 183.765 87.9461 183.762 87.8986C183.758 87.8512 187.89 87.675 192.987 87.5089C198.084 87.3429 202.212 87.2514 202.215 87.2954Z" fill="white"/>
<path d="M202.012 86.4412C202.012 86.492 197.924 86.6649 192.875 86.8275C187.826 86.9902 183.734 87.0884 183.73 87.0376C183.727 86.9868 187.818 86.8173 192.867 86.6513C197.917 86.4853 202.008 86.3938 202.012 86.4412Z" fill="white"/>
<path d="M190.473 47.9433C190.743 47.5911 190.935 47.193 191.038 46.7719C191.141 46.3508 191.152 45.915 191.071 45.4899C190.983 45.0659 190.785 44.6679 190.495 44.3298C190.204 43.9917 189.829 43.7235 189.402 43.5482C188.969 43.3833 188.495 43.3355 188.034 43.4105C187.573 43.4855 187.145 43.6802 186.8 43.9718C186.213 44.497 185.919 45.3272 185.163 45.6254C184.463 45.8965 183.516 45.6254 182.991 46.1337C182.694 46.4218 182.661 46.8691 182.411 47.1978C182.096 47.6179 181.505 47.7637 181.05 48.0585C180.731 48.2704 180.479 48.5561 180.318 48.8869C180.157 49.2176 180.093 49.5817 180.133 49.9425C180.228 50.7117 180.778 51.3522 181.266 51.9757C181.755 52.5992 182.21 53.3311 182.074 54.1038" fill="#353535"/>
<path d="M185.624 62.1993L180.945 50.6543L181.246 50.2713C183.279 47.6892 184.182 46.2863 187.598 46.6658C188.385 46.8019 189.121 47.1228 189.735 47.5976C190.348 48.0724 190.819 48.6851 191.102 49.3767C191.785 51.0406 192.658 53.233 193.073 54.6054C193.807 57.0418 191.308 58.1363 191.308 58.1363L192.346 62.0332L185.624 62.1993Z" fill="#FFF8E1"/>
<path d="M190.713 51.0571C190.643 51.0252 190.585 50.9748 190.546 50.9123C190.506 50.8498 190.488 50.7779 190.493 50.7058C190.498 50.6337 190.526 50.5646 190.573 50.5071C190.621 50.4496 190.685 50.4063 190.759 50.3828C190.833 50.3592 190.913 50.3564 190.989 50.3747C191.064 50.393 191.133 50.4316 191.185 50.4856C191.237 50.5396 191.27 50.6065 191.281 50.6781C191.292 50.7497 191.279 50.8226 191.245 50.8877C191.199 50.9749 191.117 51.0417 191.017 51.0734C190.918 51.1051 190.808 51.0993 190.713 51.0571Z" fill="#353535"/>
<path d="M191.241 50.2642C191.212 50.3184 190.896 50.2032 190.533 50.3015C190.169 50.3998 189.964 50.6403 189.909 50.6098C189.854 50.5793 189.909 50.5082 189.99 50.3964C190.112 50.2521 190.28 50.1476 190.471 50.0982C190.662 50.0488 190.865 50.0571 191.05 50.1219C191.179 50.1727 191.241 50.2405 191.241 50.2642Z" fill="#353535"/>
<path d="M187.267 51.6707C187.342 51.6905 187.409 51.7304 187.46 51.7853C187.51 51.8402 187.542 51.9076 187.552 51.9792C187.561 52.0508 187.547 52.1234 187.512 52.1877C187.476 52.2521 187.421 52.3054 187.354 52.341C187.286 52.3766 187.208 52.3928 187.13 52.3877C187.052 52.3826 186.977 52.3563 186.916 52.3122C186.854 52.2682 186.808 52.2082 186.783 52.1399C186.758 52.0716 186.755 51.9979 186.775 51.9283C186.803 51.8339 186.871 51.7538 186.963 51.7055C187.055 51.6573 187.165 51.6447 187.267 51.6707Z" fill="#353535"/>
<path d="M187.495 51.5483C187.469 51.6025 187.15 51.4873 186.787 51.5855C186.423 51.6838 186.218 51.9244 186.163 51.8939C186.108 51.8634 186.163 51.7956 186.244 51.6838C186.365 51.5387 186.533 51.4331 186.724 51.3822C186.917 51.3334 187.121 51.3417 187.308 51.406C187.447 51.4602 187.51 51.5246 187.495 51.5483Z" fill="#353535"/>
<path d="M189.778 54.0422C189.945 53.9254 190.13 53.8339 190.328 53.7711C190.42 53.7338 190.49 53.6932 190.479 53.6457C190.454 53.5569 190.403 53.4761 190.332 53.4119C190.167 53.2188 190.002 53.0188 189.829 52.8121C189.374 52.3107 188.974 51.768 188.637 51.1924C189.144 51.647 189.6 52.1477 189.998 52.6868L190.486 53.3001C190.582 53.3926 190.641 53.5118 190.655 53.639C190.652 53.6761 190.639 53.712 190.618 53.7438C190.597 53.7756 190.568 53.8024 190.534 53.822C190.487 53.8512 190.435 53.873 190.38 53.8863C190.191 53.9709 189.987 54.0237 189.778 54.0422Z" fill="#353535"/>
<path d="M191.314 58.1089C190.096 58.4402 188.8 58.4402 187.582 58.1089C187.582 58.1089 188.91 59.6507 191.464 58.7188L191.314 58.1089Z" fill="#F6BBBB"/>
<path d="M189.779 49.9562C189.864 50.0138 189.965 50.0471 190.07 50.0519C190.175 50.0567 190.28 50.0329 190.37 49.9833C190.587 49.8986 190.77 49.7461 190.759 49.5699C190.748 49.3937 190.444 49.2683 190.102 49.4005C189.761 49.5327 189.64 49.8309 189.779 49.9562Z" fill="#353535"/>
<path d="M186.133 51.1249C186.294 51.2231 186.54 51.1486 186.786 51.0706C187.032 50.9927 187.263 50.8843 187.311 50.7114C187.311 50.6267 187.267 50.5318 187.12 50.4742C186.933 50.4115 186.728 50.413 186.542 50.4783C186.356 50.5436 186.202 50.6684 186.107 50.83C186.041 50.9622 186.059 51.0706 186.133 51.1249Z" fill="#353535"/>
<path d="M188.251 54.4321C188.196 54.4524 188.405 54.8421 188.915 55.0251C189.425 55.2081 189.858 55.0624 189.836 55.0082C189.814 54.9539 189.429 55.0082 188.996 54.8286C188.563 54.649 188.302 54.3813 188.251 54.4321Z" fill="#353535"/>
<path d="M190.479 47.9432C189.8 48.6616 188.325 48.8954 187.316 48.6921C186.604 48.5464 185.87 48.1567 185.191 48.4007C184.512 48.6446 184.332 49.1529 184.314 49.7798C184.29 50.119 184.122 50.4359 183.848 50.6626C183.574 50.8893 183.214 51.0079 182.846 50.9929C183.246 52.1722 183.661 53.0261 183.551 54.2155C183.529 54.429 183.268 54.6459 183.136 54.8187C183.074 54.9083 182.982 54.9765 182.874 55.0127C182.766 55.0489 182.648 55.051 182.538 55.0186C182.442 54.9635 182.359 54.8899 182.295 54.8028C182.232 54.7157 182.19 54.6172 182.171 54.5137C181.804 53.3379 181.213 52.118 180.835 50.9421C180.722 50.5099 180.733 50.0576 180.869 49.6307C181.052 49.137 181.387 48.7035 181.834 48.3837C182.608 47.6464 183.477 46.9989 184.421 46.4556C185.376 45.912 186.513 45.7074 187.62 45.8795C188.721 46.093 190.083 46.6555 190.248 47.6721" fill="#353535"/>
<path d="M182.763 53.4292C182.711 53.4292 180.777 53.5444 181.401 55.1913C181.944 56.6145 183.566 55.8859 183.555 55.8385C183.544 55.7911 182.763 53.4292 182.763 53.4292Z" fill="#FFF8E1"/>
<path d="M182.765 55.3C182.765 55.3 182.743 55.3237 182.703 55.3542C182.645 55.395 182.573 55.4143 182.501 55.4084C182.321 55.3915 182.134 55.1814 182.035 54.9239C181.997 54.8016 181.989 54.673 182.013 54.5477C182.015 54.4995 182.03 54.4525 182.057 54.4107C182.083 54.3689 182.119 54.3334 182.163 54.3071C182.193 54.2927 182.226 54.2878 182.259 54.2934C182.292 54.2989 182.321 54.3145 182.343 54.3376C182.376 54.3749 182.372 54.4054 182.38 54.4054C182.387 54.4054 182.409 54.3749 182.38 54.3173C182.361 54.2836 182.33 54.2571 182.292 54.2428C182.241 54.2241 182.185 54.2241 182.134 54.2428C182.073 54.2704 182.021 54.3115 181.982 54.3624C181.943 54.4132 181.918 54.4723 181.91 54.5342C181.874 54.6734 181.874 54.8186 181.91 54.9578C182.002 55.2424 182.237 55.4762 182.479 55.483C182.523 55.4841 182.567 55.4762 182.608 55.4598C182.648 55.4434 182.684 55.4189 182.714 55.3881C182.772 55.3373 182.772 55.3034 182.765 55.3Z" fill="#F6BBBB"/>
<path d="M234.991 65.8555L236.503 65.7166C237.383 65.5641 238.653 65.1981 239.328 64.7C239.695 64.4255 239.923 64.1782 239.849 63.9172C239.814 63.7887 239.728 63.6773 239.607 63.6056C239.487 63.5339 239.341 63.5072 239.2 63.5309C239.2 63.5309 240.106 63.3242 239.816 62.7346C239.618 62.3381 238.932 62.5448 238.932 62.5448C238.932 62.5448 240.062 62.0501 239.915 61.5723C239.891 61.4749 239.834 61.3874 239.751 61.3231C239.668 61.2589 239.565 61.2214 239.457 61.2165C240.022 60.8234 239.978 60.5388 239.78 60.3287C239.53 60.0542 239.046 60.1254 238.679 60.2541L237.442 60.6947C236.675 60.9691 236.117 61.3995 236.811 60.2372C237.505 59.0749 237.545 57.9363 237.343 57.6212C237.286 57.5522 237.207 57.5015 237.117 57.4763C237.027 57.4511 236.931 57.4527 236.842 57.4808C236.753 57.5089 236.676 57.5621 236.622 57.633C236.568 57.7038 236.539 57.7886 236.539 57.8753C236.457 58.3171 236.307 58.746 236.095 59.1495C235.942 59.4804 235.727 59.7843 235.461 60.0474C235.149 60.3558 234.87 60.6032 234.628 60.8099L233.398 62.1213L234.991 65.8555Z" fill="#FFF8E1"/>
<path d="M197.604 84.2165L222.953 79.917L218.297 56.5084L192.949 60.8079L197.604 84.2165Z" fill="#E43434"/>
<path opacity="0.4" d="M197.604 84.2165L222.953 79.917L218.297 56.5084L192.949 60.8079L197.604 84.2165Z" fill="#0C0C0C"/>
<path d="M192.691 63.1478C192.691 63.1309 197.289 65.0116 202.94 67.3463C208.591 69.6811 213.171 71.5889 213.163 71.6092C213.156 71.6295 208.565 69.7455 202.911 67.4107C197.256 65.0759 192.68 63.1682 192.691 63.1478Z" fill="#E43434"/>
<path d="M193.945 68.5355C193.945 68.5186 198.543 70.3959 204.198 72.7306C209.852 75.0654 214.425 76.9766 214.417 76.9935C214.41 77.0104 209.819 75.1331 204.165 72.795C198.51 70.4569 193.938 68.5525 193.945 68.5355Z" fill="#E43434"/>
<path d="M194.797 73.7952C194.797 73.7952 198.786 75.3912 203.688 77.4244C208.59 79.4575 212.557 81.1078 212.55 81.1248C212.542 81.1417 208.561 79.5152 203.655 77.4888C198.749 75.4624 194.786 73.8155 194.797 73.7952Z" fill="#E43434"/>
<path d="M197.551 59.4308C197.551 59.4139 200.831 60.749 204.857 62.4128C208.882 64.0766 212.137 65.4355 212.126 65.4626C212.115 65.4897 208.849 64.1444 204.824 62.484C200.798 60.8235 197.543 59.4647 197.551 59.4308Z" fill="#E43434"/>
<path d="M195.961 79.4035C195.961 79.3832 197.656 80.1117 199.73 81.0266C201.803 81.9416 203.472 82.6972 203.465 82.7209C203.458 82.7447 201.77 82.0127 199.696 81.0978C197.623 80.1829 195.95 79.4204 195.961 79.4035Z" fill="#E43434"/>
<path d="M215.811 81.1587L241.16 76.8591L236.504 53.4505L211.156 57.75L215.811 81.1587Z" fill="#E43434"/>
<path d="M238.797 60.2473L237.271 60.82C237.079 60.8764 236.9 60.9674 236.746 61.0877C236.669 61.1477 236.612 61.2268 236.582 61.3157C236.552 61.4045 236.551 61.4995 236.577 61.5892C236.62 61.6746 236.689 61.747 236.774 61.7979C236.86 61.8489 236.96 61.8764 237.062 61.8772C237.265 61.8743 237.465 61.8352 237.652 61.762L239.311 61.23" fill="#FFF8E1"/>
<path d="M238.557 61.4399L236.928 62.0329C236.722 62.0928 236.532 62.1896 236.367 62.3176C236.284 62.3819 236.223 62.4671 236.192 62.5628C236.16 62.6585 236.16 62.7605 236.19 62.8564C236.236 62.9471 236.308 63.0239 236.399 63.0779C236.49 63.132 236.596 63.1609 236.704 63.1614C236.92 63.1581 237.133 63.1167 237.332 63.0394L239.1 62.4701" fill="#FFF8E1"/>
<path d="M238.578 62.5957L237.209 63.0938C237.036 63.1453 236.875 63.227 236.736 63.3344C236.661 63.3851 236.607 63.4568 236.58 63.5387C236.554 63.6206 236.557 63.7082 236.589 63.7882C236.622 63.8683 236.681 63.9364 236.759 63.9823C236.837 64.0282 236.93 64.0494 237.022 64.0426C237.203 64.0392 237.382 64.0047 237.55 63.941L239.036 63.4632" fill="#FFF8E1"/>
<path d="M239.124 63.4326L237.752 63.9307C237.58 63.9818 237.421 64.0623 237.282 64.1679C237.208 64.2185 237.154 64.2899 237.127 64.3714C237.101 64.4529 237.104 64.5401 237.136 64.6199C237.167 64.6997 237.226 64.7679 237.304 64.8141C237.381 64.8603 237.473 64.8821 237.565 64.8762C237.748 64.8761 237.929 64.8415 238.097 64.7745L239.583 64.2967" fill="#FFF8E1"/>
<path d="M239.584 61.1113C239.246 61.3162 238.874 61.4695 238.483 61.5654C238.112 61.7151 237.719 61.8111 237.316 61.85C237.655 61.6452 238.026 61.4919 238.417 61.396C238.788 61.2463 239.182 61.1503 239.584 61.1113Z" fill="#F6BBBB"/>
<path d="M239.122 62.4568C238.829 62.6619 238.495 62.8095 238.138 62.8905C237.8 63.0235 237.437 63.0938 237.07 63.0972C237.385 62.9267 237.725 62.7999 238.079 62.7211C238.411 62.5856 238.762 62.4965 239.122 62.4568Z" fill="#F6BBBB"/>
<path d="M239.273 63.47C239.291 63.5174 238.961 63.6496 238.539 63.7716C238.29 63.8695 238.02 63.9147 237.75 63.9037C237.75 63.8563 238.062 63.7207 238.484 63.6021C238.732 63.5022 239.002 63.4569 239.273 63.47Z" fill="#F6BBBB"/>
<path d="M224.383 58.0276C223.832 57.4481 221.106 59.4474 220.863 59.5999C220.621 59.7524 220.372 59.4338 220.599 59.3051C220.926 59.1221 224.324 57.116 223.792 56.5433C223.495 56.2248 222.926 56.7704 222.926 56.7704C222.926 56.7704 219.895 58.8612 219.653 58.5833C219.41 58.3054 221.142 57.0177 221.759 56.6213C222.375 56.2248 222.416 55.8046 222.005 55.6996C221.726 55.6284 219.803 56.7941 219.201 57.1973C218.599 57.6006 216.974 58.7358 217.282 57.5735C217.59 56.4112 217.355 55.4115 217.088 55.1811C216.82 54.9507 216.379 55.2116 216.453 55.5776C216.493 55.9794 216.47 56.3845 216.387 56.7805C216.336 57.1017 216.226 57.4124 216.06 57.6989C215.976 57.8446 215.895 57.9733 215.818 58.0987C213.638 59.1932 201.507 65.2792 200.237 65.8485C198.832 66.4754 188.044 63.7645 188.044 63.7645L186.363 69.9928C186.363 69.9928 197.063 73.2289 199.815 73.3814C202.058 73.5068 213.602 65.7231 217.777 62.8496C219.405 62.2647 220.997 61.5996 222.548 60.857C224.232 59.9862 224.151 59.8405 224.016 59.6846C223.649 59.2441 220.992 61.1078 221.307 60.403C221.623 59.6981 224.804 58.4715 224.383 58.0276Z" fill="#FFF8E1"/>
<path d="M185.875 71.1012L195.485 74.151L197.35 65.7167C197.35 65.7167 193.559 64.4596 189.967 63.4531C187.365 62.7246 183.409 63.4531 183.079 65.9472C182.063 68.6852 183.934 70.4167 185.875 71.1012Z" fill="#909090"/>
<path d="M194.883 73.9507C195.012 73.5474 195.111 73.1364 195.18 72.7206C195.349 71.9582 195.602 70.9111 195.914 69.7556C196.226 68.6 196.486 67.5564 196.666 66.7939C196.783 66.3863 196.861 65.9703 196.901 65.5503C196.738 65.943 196.607 66.3462 196.508 66.7566C196.292 67.5089 195.995 68.5492 195.694 69.7081C195.393 70.867 195.165 71.9243 195.037 72.6935C194.94 73.1067 194.888 73.5279 194.883 73.9507Z" fill="#353535"/>
<path d="M183.795 69.9689C183.795 69.9689 183.656 69.7791 183.428 69.4233C183.132 68.917 182.945 68.3622 182.878 67.79C182.766 66.9446 182.939 66.0881 183.373 65.3366C183.914 64.4212 184.795 63.7172 185.854 63.3543C186.403 63.1757 186.981 63.0862 187.563 63.09C188.107 63.0873 188.649 63.1361 189.182 63.2357C190.089 63.4246 190.98 63.6726 191.849 63.9778C192.602 64.2252 193.211 64.4217 193.636 64.5437C193.849 64.6047 194.003 64.6454 194.132 64.6759C194.188 64.695 194.248 64.7053 194.308 64.7064C194.1 64.613 193.886 64.5338 193.666 64.4691L191.904 63.8423C191.034 63.5161 190.137 63.2532 189.222 63.0561C188.085 62.802 186.895 62.8407 185.78 63.1679C184.678 63.5495 183.765 64.2893 183.211 65.2485C182.847 65.9049 182.671 66.6363 182.698 67.3735C182.726 68.1106 182.957 68.829 183.369 69.4606C183.46 69.5969 183.56 69.7271 183.67 69.8503C183.706 69.8944 183.748 69.9342 183.795 69.9689Z" fill="#353535"/>
<path d="M196.083 65.3101C196.134 65.3101 195.598 67.1603 194.883 69.4104C194.167 71.6604 193.547 73.4767 193.496 73.4767C193.444 73.4767 193.984 71.6265 194.699 69.3765C195.415 67.1264 196.035 65.2966 196.083 65.3101Z" fill="white"/>
<path d="M195.168 65.0826C195.216 65.0826 194.651 66.9023 193.906 69.115C193.161 71.3278 192.508 73.1068 192.46 73.0933C192.412 73.0797 192.974 71.2736 193.722 69.0608C194.471 66.8481 195.117 65.069 195.168 65.0826Z" fill="white"/>
<path d="M51.2253 71.7279C39.6922 73.9542 27.9059 73.8288 13.7969 72.2091L20.2698 47.5027C33.8468 49.0242 43.7543 49.3766 56.2305 47.7806L51.2253 71.7279Z" fill="#D9D9D9"/>
<path d="M42.6241 56.0113C42.6241 56.0113 42.6241 56.0893 42.5838 56.2417C42.5434 56.3942 42.503 56.6247 42.4443 56.9195C42.3122 57.5125 42.1251 58.3698 41.8829 59.4575L39.8243 68.6068V68.6644H39.7583L35.5054 68.6983H35.4026L35.421 68.6034C35.8356 66.4313 36.2943 64.0457 36.7714 61.5517C36.7867 61.1454 36.6925 60.7419 36.4971 60.3775C36.3018 60.0132 36.0114 59.6994 35.6522 59.4643C34.8403 59.052 33.8968 58.9176 32.9881 59.0848C32.4806 59.1712 32.0011 59.3636 31.5864 59.6473C31.1804 59.9345 30.841 60.294 30.5883 60.7046C30.4624 60.9076 30.3567 61.1208 30.2727 61.3416C30.1883 61.5585 30.1443 61.7923 30.0819 62.0193L29.7407 63.3748C29.2893 65.1843 28.849 66.9294 28.4343 68.5933V68.6542H28.3646H23.1613H23.0586L23.0843 68.5628C24.1851 64.7336 25.0878 61.5585 25.7263 59.3288L26.4602 56.7568C26.5446 56.4688 26.6143 56.2451 26.662 56.0791C26.7097 55.913 26.7391 55.8521 26.7391 55.8521C26.7391 55.8521 26.7391 55.93 26.684 56.0859C26.629 56.2417 26.5813 56.4756 26.5042 56.7636L25.7997 59.3423C25.1759 61.5754 24.2879 64.7641 23.2311 68.5933L23.154 68.4984H28.3573L28.2692 68.5628C28.6839 66.8989 29.1169 65.1538 29.5645 63.3409C29.6783 62.8902 29.792 62.4327 29.9058 61.9854C29.9577 61.7499 30.0226 61.5169 30.1003 61.2874C30.1893 61.0532 30.2997 60.8265 30.4305 60.6097C30.6938 60.1775 31.0496 59.7993 31.4763 59.4982C31.9108 59.2 32.4125 58.9962 32.9441 58.9018C33.8996 58.7237 34.8926 58.8667 35.7439 59.3051C36.1477 59.5479 36.4695 59.8908 36.6723 60.2945C36.8695 60.6884 36.9697 61.1178 36.9658 61.5517L35.5898 68.6136L35.5054 68.5221L39.7583 68.5018L39.6812 68.5594C40.5656 64.7709 41.2958 61.6364 41.8058 59.4406C42.0627 58.3562 42.2682 57.5023 42.4076 56.9093C42.4761 56.6247 42.5312 56.3988 42.5728 56.2316C42.6241 56.0757 42.6241 56.0113 42.6241 56.0113Z" fill="#353535"/>
<path d="M26.3207 55.9436C26.3498 55.9393 26.3796 55.9393 26.4087 55.9436H26.6656L27.66 55.9267L31.3295 55.8996L36.8336 55.8792C38.9069 55.8792 41.1966 55.8623 43.6148 55.8792L43.5708 56.0453L42.3011 55.4489L35.2778 52.1314H35.3512L28.1921 55.0592L26.1519 55.8725L25.6088 56.0826C25.5467 56.1078 25.483 56.1293 25.418 56.1469C25.4743 56.1116 25.5345 56.0821 25.5978 56.0588L26.1298 55.825L28.1517 54.9711L35.2778 51.9891L35.3145 51.9722L35.3512 51.9891L42.3635 55.2862L43.6332 55.886L44.0001 56.0588H43.5928C41.1746 56.025 38.8849 56.0351 36.8116 56.0283L31.3074 56.008L27.638 55.9809H26.6436H26.3867L26.3207 55.9436Z" fill="#353535"/>
<path d="M42.6198 56.0114C42.6965 55.9928 42.7753 55.9826 42.8546 55.9809L43.5298 55.9301L46.003 55.781H46.0984L46.0764 55.8657L44.5719 62.1347L42.9867 68.6137V68.6645H42.9317L40.6015 68.6137L39.9741 68.59C39.9 68.5917 39.8261 68.5849 39.7539 68.5696C39.8272 68.5639 39.9008 68.5639 39.9741 68.5696H40.6015H42.9096L42.8436 68.6205C43.2472 66.9262 43.794 64.649 44.3958 62.138C44.9939 59.7254 45.5406 57.5295 45.9516 55.8759L46.0213 55.9572L43.5445 56.0487H42.8693C42.7846 56.0468 42.7007 56.0343 42.6198 56.0114Z" fill="#353535"/>
<path d="M46.3835 55.8488C46.2317 55.8057 46.0853 55.7477 45.9468 55.676L44.7836 55.1507C43.8075 54.7001 42.4608 54.0664 40.982 53.3582L38.4464 52.1315H38.4831C37.5364 52.1315 36.7438 52.1315 36.1897 52.101C35.8977 52.1069 35.6057 52.0911 35.3164 52.0536C35.6059 52.0185 35.8978 52.0038 36.1897 52.0095C36.7438 52.0095 37.5364 51.9858 38.4831 51.979H38.5052H38.5235L41.0701 53.1887C42.5379 53.897 43.8846 54.5442 44.846 55.0254L45.9798 55.6014C46.1247 55.6685 46.2602 55.7516 46.3835 55.8488Z" fill="#353535"/>
<path d="M43.9077 65.0451C43.9077 65.0925 42.1904 65.123 40.0731 65.1095C38.7949 65.132 37.5163 65.0946 36.2422 64.9977C36.2422 64.9502 37.9595 64.9197 40.0768 64.9333C41.355 64.9109 42.6336 64.9483 43.9077 65.0451Z" fill="#353535"/>
<path d="M44.6198 61.5584C43.328 61.6451 42.0322 61.6711 40.7375 61.6364C38.5909 61.6364 36.8516 61.5889 36.8516 61.5415C36.8516 61.4941 38.5909 61.4568 40.7375 61.4602C42.8841 61.4636 44.6198 61.4974 44.6198 61.5584Z" fill="#353535"/>
<path d="M32.4996 65.035C32.4996 65.0824 30.6282 65.1129 28.3201 65.0994C26.012 65.0858 24.1406 65.035 24.1406 64.9875C24.1406 64.9401 26.012 64.9096 28.3201 64.9232C30.6282 64.9367 32.5033 64.9842 32.4996 65.035Z" fill="#353535"/>
<path d="M33.326 61.5484C33.326 61.5993 31.4582 61.6332 29.1538 61.6298C26.8494 61.6264 25 61.5789 25 61.5315C25 61.4841 26.8678 61.4468 29.1722 61.4502C31.4766 61.4536 33.326 61.4976 33.326 61.5484Z" fill="#353535"/>
<path d="M35.7996 59.4643C35.7511 59.4791 35.7002 59.486 35.6492 59.4847H35.4694C35.3996 59.4847 35.3189 59.5118 35.2272 59.5253C35.0105 59.5721 34.8036 59.651 34.6144 59.7591C34.3702 59.9102 34.1577 60.1008 33.9869 60.3217C33.7829 60.5934 33.6234 60.8914 33.5135 61.2061C33.3924 61.5449 33.3301 61.9279 33.231 62.3277C33.0402 63.1274 32.8347 64.0051 32.6182 64.9268C32.2879 66.2822 31.9834 67.536 31.7265 68.5967V68.6543H31.6605L29.246 68.6238L28.5708 68.6034C28.4917 68.6056 28.4126 68.5977 28.3359 68.5797C28.4131 68.5643 28.4919 68.5575 28.5708 68.5594L29.246 68.539L31.6605 68.5052L31.5834 68.5628C31.8329 67.5021 32.1265 66.2416 32.4457 64.8895C32.6659 63.9712 32.8787 63.0935 33.0732 62.2938C33.1796 61.8974 33.242 61.5111 33.3778 61.1586C33.4992 60.8323 33.6737 60.525 33.8952 60.2471C34.0806 60.0186 34.3109 59.8243 34.574 59.6744C34.7759 59.5665 34.9971 59.493 35.2272 59.4576C35.3111 59.4456 35.3956 59.4377 35.4804 59.4338H35.6638C35.7101 59.4398 35.7556 59.45 35.7996 59.4643Z" fill="#353535"/>
<path d="M49.8985 52.0601C49.9499 52.0601 49.0362 55.8079 47.8583 60.3995C46.6804 64.991 45.6823 68.7084 45.631 68.6982C45.5796 68.688 46.4933 64.9538 47.6712 60.3588C48.8491 55.7638 49.8472 52.0499 49.8985 52.0601Z" fill="#353535"/>
<path d="M48.8541 68.7217C47.8528 68.7909 46.8477 68.8 45.8451 68.7488C44.8409 68.7549 43.8373 68.704 42.8398 68.5964C43.8413 68.5296 44.8463 68.5217 45.8488 68.5726C46.8529 68.5646 47.8567 68.6144 48.8541 68.7217Z" fill="#353535"/>
<path d="M46.1335 69.2069C46.0858 69.2306 45.917 68.9968 45.7005 68.7223C45.484 68.4479 45.2932 68.2276 45.3336 68.1903C45.3739 68.1531 45.6271 68.3259 45.8583 68.6173C46.0895 68.9087 46.1812 69.1866 46.1335 69.2069Z" fill="#353535"/>
<path d="M50.4616 61.4976C49.4987 61.59 48.5304 61.6239 47.5627 61.5993C46.5945 61.634 45.625 61.6102 44.6602 61.5281C45.6241 61.4337 46.5937 61.3986 47.5627 61.4231C48.5297 61.3904 49.498 61.4153 50.4616 61.4976Z" fill="#353535"/>
<path d="M47.9013 61.2129C47.9343 61.2502 47.7545 61.4332 47.4976 61.6195C47.2408 61.8059 47.0096 61.9245 46.9766 61.8838C46.9435 61.8432 47.1233 61.667 47.3802 61.4806C47.6371 61.2942 47.8682 61.1756 47.9013 61.2129Z" fill="#353535"/>
<path d="M51.3076 56.1571C50.3968 56.2067 49.4834 56.1987 48.5738 56.1334C47.6599 56.1249 46.7477 56.0581 45.8438 55.9334C46.7557 55.8839 47.6703 55.8918 48.5812 55.9571C49.494 55.9634 50.4051 56.0302 51.3076 56.1571Z" fill="#353535"/>
<path d="M49.6497 55.7537C49.6753 55.7977 49.4478 55.9468 49.1433 56.0925C48.8387 56.2382 48.5745 56.3094 48.5488 56.2653C48.5231 56.2213 48.7543 56.0722 49.0552 55.9265C49.3561 55.7808 49.6276 55.7096 49.6497 55.7537Z" fill="#353535"/>
<path d="M51.1337 52.4297C51.1337 52.4771 48.3009 52.4297 44.8112 52.3348C41.3216 52.2399 38.4961 52.1111 38.4961 52.0603C38.4961 52.0095 41.3289 52.0603 44.8186 52.1586C48.3082 52.2568 51.1337 52.3822 51.1337 52.4297Z" fill="#353535"/>
<path d="M50.6895 51.9414C50.7189 51.9821 50.3923 52.2328 49.9557 52.5039C49.7088 52.691 49.4245 52.8315 49.119 52.9173C49.0897 52.8767 49.4162 52.6259 49.8529 52.3548C50.1002 52.1684 50.3844 52.028 50.6895 51.9414Z" fill="#353535"/>
<path d="M22.8854 59.8403C21.6781 57.9563 21.3295 55.4351 21.025 53.2732C20.8819 52.2566 20.6287 50.7961 21.3919 50.1557C22.2286 49.4779 22.3056 48.4173 23.267 47.8887C23.742 47.615 24.2918 47.4725 24.8515 47.4779C25.4113 47.4833 25.9578 47.6364 26.4264 47.9192" fill="#353535"/>
<path d="M30.1384 54.6016C29.9413 54.3357 29.6418 54.1491 29.3009 54.0799C28.9601 54.0106 28.6035 54.0639 28.3037 54.2289C28.0007 54.422 27.7817 54.7081 27.6856 55.0364C27.5895 55.3646 27.6226 55.7136 27.779 56.0214C27.9167 56.2498 28.1043 56.4493 28.3297 56.6074C28.5552 56.7655 28.8137 56.8786 29.089 56.9398C29.3344 56.9886 29.5517 57.1193 29.6993 57.3069C29.8469 57.4944 29.9144 57.7257 29.8889 57.9563C29.8118 58.5765 28.6927 58.8035 28.1899 59.3118C27.401 60.1081 25.68 60.4402 24.5205 60.5656C23.3609 60.6909 23.5187 60.6977 22.8582 59.8302C22.414 59.2435 22.1874 58.5397 22.2124 57.8242C22.1806 56.0034 22.1464 54.1837 22.1097 52.3651C22.0658 51.7083 22.1127 51.049 22.2491 50.4031C22.3896 49.7521 22.7921 49.1745 23.3756 48.7867C24.0251 48.3937 24.8434 48.3632 25.5773 48.1429C26.502 47.8684 27.2909 47.3025 28.1459 46.8959C29.0009 46.4893 30.076 46.2487 30.9457 46.6553C31.5695 46.9433 31.9878 47.5228 32.5933 47.8413C33.4556 48.2988 34.6335 48.1971 35.0482 49.373C35.1889 49.7829 35.1824 50.2239 35.0298 50.6301C34.439 52.2228 32.2961 52.8632 30.7549 52.1686C30.7219 52.4397 31.0081 53.0395 30.6999 53.8934C30.5971 54.1679 30.5641 54.5711 30.1017 54.5914" fill="#353535"/>
<path d="M21.9716 52.9613C21.7477 52.5478 21.4254 52.1864 21.0289 51.9042C20.6324 51.6219 20.1719 51.4261 19.6819 51.3314C19.1907 51.2468 18.6839 51.2852 18.2142 51.4425C17.7444 51.5998 17.3288 51.8703 17.0105 52.226C16.7054 52.5912 16.5295 53.0342 16.5065 53.495C16.4835 53.9557 16.6146 54.4118 16.8821 54.8014C17.5279 55.6722 18.7645 55.9467 19.8947 56.0856C19.4796 56.5222 18.9729 56.8765 18.4053 57.1269C17.8376 57.3774 17.2208 57.5188 16.5922 57.5427C17.0409 57.8178 17.5615 57.9762 18.0994 58.0012C18.6373 58.0263 19.1725 57.9171 19.6489 57.6851L17.8141 59.1286C18.7402 59.3425 19.718 59.2516 20.5793 58.8713C21.4405 58.4911 22.1312 57.8454 22.5323 57.0455C22.9335 56.2456 23.02 55.3415 22.777 54.489C22.534 53.6365 21.9767 52.889 21.201 52.3751" fill="#353535"/>
<path d="M20.2736 55.9811C20.5789 56.0016 20.885 55.9527 21.1652 55.8388C21.489 55.6804 21.7667 55.4524 21.9749 55.174C22.1831 54.8956 22.3157 54.575 22.3615 54.2393C22.4145 53.9033 22.3853 53.5605 22.2761 53.2363C22.1669 52.912 21.9804 52.6144 21.7303 52.3654C21.5114 52.1637 21.2718 51.9821 21.0148 51.8232C21.0148 51.8232 21.1102 51.8232 21.257 51.9012C21.4668 51.9982 21.6587 52.1251 21.8257 52.2773C22.1123 52.5292 22.3286 52.8413 22.4564 53.1871C22.5842 53.5328 22.6196 53.9019 22.5596 54.263C22.5132 54.6267 22.3668 54.9733 22.1343 55.2699C21.9017 55.5664 21.5909 55.8031 21.2313 55.9574C21.0105 56.0447 20.7696 56.0797 20.5304 56.059C20.3543 56.0319 20.2699 55.9912 20.2736 55.9811Z" fill="#E43434"/>
<path d="M16.4121 53.4897C16.3901 53.4897 16.5515 53.1509 17.113 52.9035C17.8402 52.65 18.6339 52.6075 19.388 52.7815C20.1447 52.9232 20.8555 53.2248 21.4649 53.6626C21.6481 53.7934 21.8188 53.9385 21.975 54.0963C22.0814 54.2115 22.1328 54.2793 22.1254 54.2861C22.1181 54.2929 21.8576 54.0624 21.3915 53.7642C20.7796 53.371 20.0883 53.0956 19.3587 52.9543C18.6324 52.7881 17.8705 52.8104 17.157 53.0187C16.8761 53.1265 16.6225 53.2869 16.4121 53.4897Z" fill="#909090"/>
<path d="M17.2109 55.147C17.2109 55.1199 17.4641 55.1741 17.8641 55.1809C18.3866 55.1934 18.9053 55.0948 19.3799 54.8926C19.8546 54.6905 20.2725 54.3903 20.6015 54.0152C20.8547 53.7272 20.9685 53.5205 20.9978 53.5306C20.954 53.7367 20.8542 53.929 20.7079 54.0898C20.393 54.5051 19.9648 54.836 19.4666 55.0491C18.9684 55.2622 18.4181 55.3497 17.8714 55.3029C17.6404 55.3046 17.4128 55.2508 17.2109 55.147Z" fill="#909090"/>
<path d="M21.2773 58.4712C21.2773 58.4475 21.5269 58.295 21.8681 57.9629C22.319 57.5369 22.6417 57.0096 22.8045 56.4332C22.9673 55.8568 22.9646 55.2511 22.7965 54.676C22.6717 54.2321 22.5176 53.9813 22.547 53.9644C22.7244 54.161 22.8501 54.393 22.9139 54.6421C23.1253 55.2361 23.1471 55.8737 22.9766 56.4788C22.8061 57.0839 22.4506 57.6309 21.9525 58.0544C21.764 58.2382 21.5333 58.3806 21.2773 58.4712Z" fill="#909090"/>
<path d="M26.911 48.6885C26.5919 48.471 26.2139 48.3395 25.8188 48.3084C25.4237 48.2773 25.027 48.3478 24.6726 48.5123C24.224 48.7244 23.8442 49.0424 23.5718 49.434C23.0978 50.1707 22.8035 50.9941 22.7095 51.8467C22.6728 52.2053 22.6015 52.5603 22.4967 52.9073C22.4918 52.5468 22.5176 52.1865 22.5737 51.8297C22.6347 50.9484 22.9228 50.0934 23.414 49.3357C23.7029 48.9168 24.1119 48.5801 24.5956 48.3632C24.9948 48.1947 25.4374 48.1336 25.8726 48.1869C26.165 48.2223 26.4435 48.3236 26.6835 48.4818C26.8413 48.5936 26.9184 48.6851 26.911 48.6885Z" fill="#909090"/>
<path d="M34.4327 51.2337C34.5455 51.1848 34.6536 51.127 34.7556 51.0609C34.8847 50.9674 34.9823 50.8419 35.0369 50.6991C35.0915 50.5562 35.1008 50.402 35.0638 50.2544C35.0099 50.0577 34.8792 49.8864 34.6969 49.7732C34.4625 49.6674 34.1997 49.6274 33.941 49.658C33.7755 49.668 33.6094 49.6612 33.4456 49.6376C33.2786 49.6069 33.1216 49.5408 32.9869 49.4445C32.7379 49.2389 32.5106 49.012 32.3081 48.7668C31.8857 48.3511 31.3432 48.056 30.7449 47.9162C30.2561 47.7929 29.7444 47.7675 29.2441 47.8417C28.7882 47.9268 28.349 48.0753 27.9414 48.2822C28.0299 48.1941 28.1341 48.1207 28.2496 48.0653C28.555 47.9006 28.889 47.786 29.2367 47.7265C29.7554 47.6298 30.291 47.6426 30.8036 47.7637C31.4394 47.9036 32.0163 48.2136 32.4622 48.6549C32.6602 48.889 32.8787 49.1078 33.1153 49.3089C33.3504 49.4609 33.6375 49.5284 33.9226 49.4987C34.2145 49.4716 34.5085 49.5259 34.7666 49.6546C34.8757 49.7198 34.9698 49.8042 35.0435 49.9031C35.1171 50.0019 35.1689 50.1133 35.1959 50.2307C35.2441 50.4236 35.2141 50.6261 35.1115 50.7999C35.0409 50.9348 34.9349 51.0513 34.8033 51.1388C34.7228 51.1912 34.6317 51.2281 34.5354 51.2472C34.4657 51.2405 34.4327 51.2405 34.4327 51.2337Z" fill="#909090"/>
<path d="M27.2538 58.0847C27.1151 58.0639 26.9827 58.0165 26.8648 57.9458C26.4383 57.7238 26.108 57.3724 25.9301 56.9512C25.7522 56.5299 25.7376 56.0648 25.8888 55.6348C25.9895 55.3291 26.1682 55.0502 26.4098 54.8215C26.6711 54.5874 26.9662 54.3878 27.2868 54.2285C27.6061 54.0591 27.918 53.8896 28.2005 53.7338C28.4685 53.5712 28.7064 53.3698 28.9051 53.1374C29.2411 52.7367 29.4597 52.2629 29.5399 51.7616C29.6012 51.2942 29.565 50.8203 29.4335 50.3655C29.4335 50.3655 29.4592 50.3926 29.4885 50.4536C29.5322 50.5407 29.5666 50.6315 29.5913 50.7247C29.6948 51.0673 29.7235 51.4256 29.6756 51.7785C29.6099 52.3076 29.392 52.8107 29.0445 53.2356C28.8401 53.4853 28.5921 53.7017 28.3106 53.8761C28.0207 54.0591 27.7015 54.2149 27.3896 54.381C27.0837 54.5333 26.8011 54.7224 26.5493 54.9435C26.3269 55.1529 26.1599 55.4068 26.0612 55.6856C25.9765 55.9227 25.9436 56.173 25.9644 56.422C25.9852 56.6709 26.0593 56.9136 26.1823 57.1359C26.3543 57.4398 26.6068 57.6986 26.9162 57.8882C27.1217 58.0238 27.2611 58.0678 27.2538 58.0847Z" fill="#909090"/>
<path d="M22.625 54.449C22.625 54.4118 23.1277 54.5033 23.9203 54.4253C24.9543 54.33 25.9466 53.9994 26.8082 53.463C27.6881 52.9547 28.3684 52.1993 28.7493 51.3078C28.8786 50.9312 28.8926 50.529 28.7897 50.1455C28.8574 50.237 28.9025 50.3411 28.9218 50.4505C28.9855 50.7476 28.9704 51.0545 28.8778 51.3451C28.6686 52.0872 27.9494 52.9648 26.9146 53.6087C26.0305 54.1651 24.9994 54.4895 23.9313 54.5473C23.6107 54.5669 23.2887 54.5578 22.9699 54.5202C22.8518 54.5125 22.7355 54.4885 22.625 54.449Z" fill="#909090"/>
<path d="M44.4201 142.824L44.3944 142.228L37.8555 142.4L37.9105 144.369H38.3178C40.1159 144.41 47.4694 144.471 48.662 144.129C49.9867 143.742 44.4201 142.824 44.4201 142.824Z" fill="#E43434"/>
<g opacity="0.6">
<path d="M40.2707 144.252C40.1532 143.774 39.842 143.356 39.401 143.083C38.9529 142.797 38.4096 142.666 37.8672 142.713L37.9149 144.276L40.2707 144.252Z" fill="#FAFAFA"/>
</g>
<g opacity="0.6">
<path d="M47.1542 143.349C47.1542 143.349 49.11 143.78 48.8789 144.061C48.6477 144.342 41.2097 144.522 37.9219 144.356V144.23L46.5965 144.081C46.5965 144.081 46.7763 143.37 47.1542 143.349Z" fill="#FAFAFA"/>
</g>
<path d="M37.8125 144.227H37.9263H38.2492L39.4307 144.244C40.4325 144.244 41.8159 144.244 43.3424 144.207C44.8689 144.169 46.2486 144.112 47.2467 144.058L48.4282 143.986L48.7511 143.963H48.4282L47.243 144.01C46.2449 144.051 44.8652 144.102 43.3387 144.139C41.8122 144.176 40.4325 144.19 39.4307 144.196H38.2492H37.9263L37.8125 144.227Z" fill="#353535"/>
<path d="M46.5907 144.18C46.6398 144.01 46.7087 143.845 46.7962 143.688C46.9092 143.543 47.0397 143.41 47.1852 143.292C46.9904 143.359 46.8278 143.487 46.7265 143.655C46.6093 143.807 46.5607 143.995 46.5907 144.18Z" fill="#353535"/>
<path d="M44.6517 143.38C44.6701 143.38 44.7584 143.292 44.8504 143.159C44.9424 143.027 45.0013 142.915 44.9829 142.905C44.9645 142.895 44.8725 142.993 44.7842 143.126C44.6958 143.258 44.6333 143.37 44.6517 143.38Z" fill="#353535"/>
<path d="M44.1139 143.163C44.1139 143.163 44.2317 143.116 44.3421 143.024C44.4525 142.933 44.5261 142.855 44.5114 142.841C44.4967 142.828 44.3973 142.889 44.2869 142.977C44.1764 143.065 44.0881 143.139 44.1139 143.163Z" fill="#353535"/>
<path d="M43.7617 142.635C43.8723 142.665 43.9884 142.674 44.103 142.662C44.2171 142.67 44.3317 142.657 44.4406 142.624C44.2172 142.577 43.9851 142.577 43.7617 142.624V142.635Z" fill="#353535"/>
<path d="M43.6367 142.265C43.7489 142.323 43.8754 142.352 44.0037 142.351C44.1375 142.368 44.2737 142.349 44.3963 142.296C44.2669 142.286 44.1367 142.286 44.0073 142.296C43.885 142.276 43.761 142.265 43.6367 142.265Z" fill="#353535"/>
<path d="M44.8516 142.886C44.9902 142.905 45.1313 142.905 45.2699 142.886C45.4192 142.865 45.5665 142.833 45.7102 142.791C45.798 142.766 45.8829 142.733 45.9634 142.692C45.9874 142.68 46.0085 142.664 46.0255 142.644C46.0425 142.624 46.0551 142.602 46.0625 142.577C46.0685 142.55 46.0654 142.522 46.0536 142.496C46.0418 142.471 46.0219 142.45 45.9964 142.435C45.8351 142.372 45.6558 142.358 45.4856 142.398C45.3155 142.437 45.1637 142.526 45.0534 142.652C44.9905 142.723 44.9465 142.806 44.925 142.896C44.9162 142.928 44.9162 142.962 44.925 142.994C44.9631 142.881 45.0241 142.775 45.1048 142.682C45.2015 142.58 45.3293 142.507 45.4717 142.472C45.6348 142.422 45.8121 142.428 45.9707 142.489C46.0368 142.53 46.0148 142.598 45.9414 142.638C45.8677 142.676 45.7903 142.706 45.7102 142.73C45.5699 142.775 45.4264 142.811 45.2809 142.838C45.0093 142.872 44.8516 142.875 44.8516 142.886Z" fill="#353535"/>
<path d="M44.9625 142.902C45.0076 142.826 45.0207 142.736 44.9992 142.652C44.9847 142.556 44.9429 142.466 44.8781 142.391C44.838 142.335 44.7833 142.29 44.719 142.26C44.6548 142.23 44.5832 142.215 44.5112 142.218C44.4912 142.221 44.4722 142.228 44.4552 142.238C44.4383 142.248 44.4237 142.262 44.4124 142.277C44.4011 142.293 44.3933 142.31 44.3894 142.328C44.3856 142.347 44.3858 142.366 44.3901 142.384C44.4003 142.442 44.4268 142.497 44.4671 142.543C44.5239 142.622 44.5918 142.694 44.669 142.757C44.7372 142.821 44.8217 142.869 44.9148 142.896C44.9148 142.896 44.8304 142.835 44.7093 142.723C44.6402 142.659 44.5787 142.588 44.5258 142.513C44.4671 142.438 44.4231 142.303 44.5258 142.282C44.5808 142.287 44.6341 142.302 44.6821 142.328C44.7302 142.353 44.772 142.387 44.8047 142.428C44.8649 142.495 44.9076 142.574 44.9295 142.658C44.9475 142.739 44.9585 142.82 44.9625 142.902Z" fill="#353535"/>
<path d="M37.8945 142.695C37.8945 142.695 38.078 142.675 38.3752 142.695C38.7548 142.72 39.1205 142.837 39.4357 143.034C39.7373 143.23 39.9737 143.5 40.1182 143.814C40.2246 144.051 40.2393 144.214 40.254 144.21C40.2687 144.207 40.254 144.169 40.254 144.098C40.2401 143.995 40.213 143.894 40.1733 143.797C40.0405 143.466 39.801 143.181 39.4871 142.98C39.1618 142.774 38.7803 142.657 38.3862 142.641C38.2636 142.634 38.1406 142.64 38.0193 142.658C37.9755 142.663 37.9332 142.676 37.8945 142.695Z" fill="#353535"/>
<path d="M41.0703 143.688C41.7014 143.776 42.3437 143.766 42.9711 143.658C42.9711 143.637 42.5454 143.658 42.0207 143.678C41.496 143.699 41.0703 143.668 41.0703 143.688Z" fill="#353535"/>
<path d="M39.793 143.715C39.793 143.715 39.8298 143.793 39.8776 143.875C39.9255 143.956 39.9475 144.03 39.9733 144.03C39.9991 144.03 40.0028 143.942 39.9476 143.847C39.8923 143.753 39.8077 143.702 39.793 143.715Z" fill="#353535"/>
<path d="M39.3164 143.214C39.3164 143.214 39.3456 143.285 39.415 143.342C39.4844 143.399 39.5538 143.433 39.5685 143.419C39.5831 143.406 39.5392 143.348 39.4698 143.291C39.4004 143.234 39.3164 143.2 39.3164 143.214Z" fill="#353535"/>
<path d="M38.6098 142.997C38.6098 143.014 38.7018 143.014 38.7975 143.038C38.8932 143.062 38.9631 143.11 38.9815 143.096C38.9999 143.083 38.941 143.008 38.8196 142.973C38.6981 142.939 38.6024 142.98 38.6098 142.997Z" fill="#353535"/>
<path d="M38.1133 142.899C38.1133 142.899 38.1463 142.943 38.1977 142.96C38.2492 142.977 38.3042 142.977 38.3116 142.96C38.3189 142.943 38.2822 142.916 38.2271 142.899C38.172 142.882 38.1206 142.878 38.1133 142.899Z" fill="#353535"/>
<path d="M14.0351 140.398L13.0664 144.329H19.609L19.8879 141.77L14.0351 140.398Z" fill="#E43434"/>
<path d="M19.7486 143.76C19.4343 143.805 19.116 143.822 18.7982 143.81C18.2074 143.81 17.3928 143.81 16.4975 143.77L14.2004 143.678C13.882 143.682 13.5639 143.66 13.25 143.611C13.5653 143.564 13.8851 143.548 14.2041 143.563C14.7948 143.563 15.6058 143.563 16.5048 143.604L18.7982 143.692C19.1166 143.688 19.4347 143.711 19.7486 143.76Z" fill="#353535"/>
<path d="M16.9846 141.164C17.0454 141.587 17.0454 142.015 16.9846 142.438C16.9819 142.864 16.9213 143.287 16.8043 143.699C16.7423 143.276 16.7423 142.847 16.8043 142.425C16.8037 141.999 16.8644 141.575 16.9846 141.164Z" fill="#353535"/>
<g opacity="0.6">
<path d="M13.0664 144.328H19.609L19.6714 143.758L13.1838 143.609L13.0664 144.26" fill="#FAFAFA"/>
</g>
<path d="M19.177 84.4619C19.177 84.4619 15.1883 90.619 15.1883 94.2889L12.4766 133.888L23.2868 135.03L25.9141 96.2441C25.9141 96.2441 34.7538 135.606 35.1281 135.606C35.5024 135.606 44.9733 135.03 44.9733 135.03L34.7538 84.6585L19.177 84.4619Z" fill="#430909"/>
<path d="M42.9867 135.074C42.9354 135.074 40.7447 123.807 38.0917 109.887C35.4387 95.9663 33.3214 84.6755 33.3801 84.6687C33.4388 84.6619 35.6258 95.9358 38.2788 109.856C40.9318 123.777 43.0344 135.068 42.9867 135.074Z" fill="#D9D9D9"/>
<path d="M39.7957 135.616C39.7443 135.616 37.594 124.224 34.963 110.158C32.332 96.0916 30.2624 84.6754 30.3175 84.6686C30.3725 84.6618 32.5192 96.0577 35.1502 110.127C37.7812 124.197 39.8471 135.606 39.7957 135.616Z" fill="#D9D9D9"/>
<path d="M36.9203 135.522C36.8689 135.522 34.4324 124.089 31.4785 109.972C28.5246 95.8547 26.1725 84.3944 26.2275 84.3843C26.2826 84.3741 28.7117 95.8141 31.6656 109.938C34.6196 124.062 36.9717 135.512 36.9203 135.522Z" fill="#D9D9D9"/>
<path d="M21.8551 134.888C21.8001 134.888 22.3909 123.608 23.1688 109.707C23.9467 95.8073 24.6366 84.53 24.6733 84.53C24.71 84.53 24.1375 95.8073 23.3596 109.714C22.5817 123.621 21.9065 134.888 21.8551 134.888Z" fill="#D9D9D9"/>
<path d="M22.2192 84.4619C22.2192 84.4619 22.2192 84.5026 22.1605 84.5805L21.9844 84.9194C21.8376 85.2244 21.6174 85.6784 21.3862 86.2748C20.7108 87.9598 20.2742 89.7184 20.0872 91.5068C19.7203 96.0476 19.3974 102.35 18.9864 109.277C18.5754 116.203 18.2268 122.492 17.9663 127.057C17.8305 129.324 17.7204 131.16 17.6434 132.441L17.548 133.909L17.5186 134.288C17.524 134.331 17.524 134.374 17.5186 134.417C17.5146 134.374 17.5146 134.331 17.5186 134.288V133.905L17.581 132.438L17.8415 127.05C18.0727 122.499 18.4066 116.206 18.8066 109.267C19.2066 102.327 19.5625 96.051 19.9588 91.4933C20.1622 89.6992 20.625 87.9384 21.3349 86.2579C21.5844 85.6615 21.8082 85.2108 21.9697 84.9024C22.0504 84.7533 22.1165 84.6415 22.1605 84.5636C22.1774 84.5284 22.197 84.4944 22.2192 84.4619Z" fill="#D9D9D9"/>
<path d="M19.6377 84.3843C19.6283 84.4269 19.6122 84.468 19.59 84.5063C19.5533 84.5944 19.5019 84.713 19.4358 84.8451C19.2964 85.1535 19.0689 85.6042 18.8487 86.2006C18.1728 87.8767 17.6643 89.6065 17.3296 91.3682C17.1167 92.4831 16.9406 93.7131 16.8122 95.0381C16.6837 96.363 16.6104 97.7863 16.537 99.284C16.4159 102.283 16.1187 105.57 15.8545 109.02C15.3004 115.922 14.7976 122.167 14.4307 126.698C14.2399 128.951 14.0858 130.764 13.9794 132.052L13.8436 133.509L13.8069 133.885C13.8041 133.929 13.7967 133.972 13.7849 134.014C13.78 133.971 13.78 133.928 13.7849 133.885L13.8069 133.506C13.8289 133.167 13.8619 132.672 13.9023 132.049C13.9977 130.771 14.1298 128.945 14.2949 126.688C14.6619 122.157 15.1316 115.909 15.6636 109.009C15.9278 105.556 16.2324 102.273 16.3608 99.2772C16.4379 97.7795 16.5223 96.3563 16.6544 95.0245C16.7865 93.6928 16.9736 92.4627 17.1938 91.3445C17.5415 89.5845 18.0686 87.8588 18.768 86.1904C19.0065 85.594 19.2377 85.1501 19.3881 84.835L19.5606 84.4961C19.5823 84.4566 19.6081 84.4191 19.6377 84.3843Z" fill="#D9D9D9"/>
<path d="M30.3107 97.2475C30.3107 97.2949 28.1971 96.8612 25.6175 96.2784C23.0379 95.6955 20.9609 95.1872 20.9609 95.1398C20.9609 95.0923 23.0709 95.5261 25.6505 96.1089C28.2301 96.6918 30.3217 97.2001 30.3107 97.2475Z" fill="#909090"/>
<path d="M19.177 84.4619L21.0411 79.4569L19.7458 73.3981L18.733 76.0683L12.4766 73.9471C12.4766 73.9471 16.513 66.465 16.7331 66.0719C18.5679 62.48 23.518 62.48 23.518 62.48L29.8001 62.6325C30.7978 62.5723 31.7977 62.7139 32.73 63.0475C33.6623 63.3811 34.5045 63.8987 35.1978 64.564C36.9959 66.238 40.8488 73.9403 40.8488 73.9403L35.1978 76.6851L33.1796 73.2016L33.5466 77.966L34.8492 85.2244L19.177 84.4619Z" fill="#E43434"/>
<path d="M32.3066 64.2085C32.3066 64.2254 32.1304 64.2322 31.8442 64.3406C31.4456 64.508 31.1116 64.7833 30.8865 65.1302C30.5492 65.6429 30.412 66.2467 30.4975 66.8414C30.6143 67.5723 30.8623 68.2801 31.2314 68.9356C31.9653 70.3757 32.6038 71.6905 33.0661 72.6427L33.6019 73.7745C33.6732 73.9106 33.7309 74.0524 33.7743 74.1981C33.6783 74.0744 33.5971 73.9415 33.5322 73.8016L32.9451 72.6936C32.4497 71.7549 31.7892 70.4537 31.059 69.0101C30.6834 68.3367 30.4352 67.609 30.3251 66.8584C30.2446 66.2305 30.4042 65.5964 30.7764 65.0658C31.0233 64.705 31.3903 64.428 31.8222 64.2762C31.9403 64.2369 32.0638 64.2129 32.1891 64.2051C32.2625 64.2085 32.3066 64.2085 32.3066 64.2085Z" fill="#353535"/>
<path d="M21.1063 79.7418C21.0513 79.7418 20.299 76.6074 19.422 72.7206C18.545 68.8339 17.8772 65.6723 17.9286 65.6621C17.9799 65.652 18.7322 68.7966 19.6092 72.6833C20.4862 76.5701 21.1577 79.7317 21.1063 79.7418Z" fill="#353535"/>
<g opacity="0.2">
<path d="M21.5633 79.3525C22.7412 80.1692 24.4989 79.8947 25.9336 79.6744C27.4063 79.4713 28.7539 78.7944 29.7388 77.7632C30.1986 77.3155 30.4514 76.7199 30.4434 76.1028C30.3883 75.4929 29.8049 74.9066 29.1481 74.9778C28.4142 75.0625 28.0472 75.8419 27.6803 76.4552C27.088 77.4265 26.1842 78.2043 25.0932 78.6813C24.0022 79.1583 22.7779 79.3112 21.589 79.1187C21.589 79.1187 21.3541 79.2068 21.5633 79.3525Z" fill="#0C0C0C"/>
</g>
<path d="M30.5459 75.0249C30.5683 75.1631 30.5683 75.3035 30.5459 75.4417C30.5021 75.8226 30.3996 76.1957 30.2414 76.5498C29.704 77.7257 28.7311 78.6867 27.4966 79.2607C26.2649 79.8093 24.9026 80.06 23.5373 79.9892C23.1264 79.9757 22.717 79.9372 22.3117 79.874C22.1627 79.8578 22.0162 79.826 21.875 79.7791C21.875 79.7453 22.5098 79.8537 23.5409 79.8639C24.8789 79.8964 26.2061 79.6339 27.4122 79.098C28.608 78.5405 29.563 77.6239 30.1203 76.499C30.3284 76.026 30.4714 75.5308 30.5459 75.0249Z" fill="#353535"/>
<g opacity="0.2">
<path d="M30.5469 67.5388C30.9138 70.2734 31.3945 72.5201 32.0147 75.2174C32.3192 76.5424 32.6862 77.9283 33.6806 78.928L33.1082 72.8623L30.5469 67.5388Z" fill="#0C0C0C"/>
</g>
</svg>
