<svg width="16" height="18" viewBox="0 0 16 18" fill="none" xmlns="http://www.w3.org/2000/svg">
<path d="M8.00033 17.9584C7.35033 17.9584 6.71699 17.625 6.28366 17.0417L5.44199 15.9167C5.26699 15.6834 5.03366 15.55 4.78366 15.5334C4.53366 15.525 4.28366 15.6334 4.08366 15.8417L3.60866 15.4167L4.06699 15.8417C2.86699 17.125 1.94199 17.025 1.50033 16.85C1.05033 16.675 0.291992 16.1 0.291992 14.25V4.86669C0.291992 1.16669 1.35866 0.041687 4.85033 0.041687H11.1503C14.642 0.041687 15.7087 1.16669 15.7087 4.86669V14.25C15.7087 16.0917 14.9503 16.6667 14.5003 16.85C14.0587 17.025 13.142 17.125 11.9337 15.8417C11.7337 15.625 11.4837 15.5084 11.2253 15.5334C10.9753 15.55 10.7337 15.6834 10.5587 15.9167L9.71699 17.0417C9.28366 17.625 8.65033 17.9584 8.00033 17.9584ZM4.73366 14.275C4.76699 14.275 4.80866 14.275 4.84199 14.275C5.45866 14.3084 6.04199 14.6334 6.43366 15.1584L7.27533 16.2834C7.68366 16.825 8.30866 16.825 8.71699 16.2834L9.55866 15.1584C9.95866 14.6334 10.5337 14.3084 11.1587 14.275C11.7753 14.2417 12.392 14.5 12.842 14.9834C13.4753 15.6584 13.8837 15.7417 14.0337 15.6834C14.2337 15.6 14.4503 15.1167 14.4503 14.25V4.86669C14.4503 1.85835 13.9253 1.29169 11.142 1.29169H4.85033C2.06699 1.29169 1.54199 1.85835 1.54199 4.86669V14.25C1.54199 15.125 1.75866 15.6084 1.95866 15.6834C2.10033 15.7417 2.51699 15.6584 3.15033 14.9834C3.60033 14.525 4.15866 14.275 4.73366 14.275Z" fill="#505050"/>
</svg>
