<svg width="16" height="19" viewBox="0 0 16 19" fill="none" xmlns="http://www.w3.org/2000/svg">
<path d="M2.10781 18.4584C1.75781 18.4584 1.43281 18.375 1.14115 18.2084C0.499479 17.8334 0.132812 17.075 0.132812 16.1334V4.38335C0.132812 2.26669 1.85781 0.541687 3.97448 0.541687H12.0161C14.1328 0.541687 15.8578 2.26669 15.8578 4.38335V16.125C15.8578 17.0667 15.4911 17.825 14.8495 18.2C14.2078 18.575 13.3661 18.5334 12.5411 18.075L8.47448 15.8167C8.23281 15.6834 7.75781 15.6834 7.51615 15.8167L3.44948 18.075C2.99948 18.325 2.54115 18.4584 2.10781 18.4584ZM3.98281 1.79169C2.55781 1.79169 1.39115 2.95835 1.39115 4.38335V16.125C1.39115 16.6167 1.53281 16.9834 1.78281 17.125C2.03281 17.275 2.42448 17.225 2.84948 16.9834L6.91615 14.725C7.53281 14.3834 8.46615 14.3834 9.08281 14.725L13.1495 16.9834C13.5745 17.225 13.9661 17.275 14.2161 17.125C14.4661 16.975 14.6078 16.6084 14.6078 16.125V4.38335C14.6078 2.95835 13.4411 1.79169 12.0161 1.79169H3.98281V1.79169Z" fill="#717171"/>
</svg>
