<svg width="596" height="455" viewBox="0 0 596 455" fill="none" xmlns="http://www.w3.org/2000/svg">
<path d="M377.048 337.439C376.099 336.464 376.517 333.16 377.964 330.07C379.411 326.98 381.373 325.316 382.322 326.267C383.27 327.218 382.852 330.545 381.405 333.635C379.958 336.725 377.981 338.413 377.048 337.439Z" fill="#ADADAD"/>
<path d="M304.654 325.681C303.689 326.655 300.377 321.925 297.258 315.151C294.139 308.377 292.434 302.102 293.319 301.127C294.203 300.153 297.579 304.883 300.715 311.657C303.85 318.431 305.602 324.73 304.654 325.681Z" fill="#F66262"/>
<path d="M298.674 269.963C298.449 271.65 295.893 272.34 292.966 271.46C290.04 270.581 287.854 268.56 288.143 266.873C288.432 265.185 290.924 264.496 293.851 265.399C296.777 266.302 298.899 268.228 298.674 269.963Z" fill="#ADADAD"/>
<path d="M205.302 399.681C204.337 400.655 201.025 395.925 197.906 389.151C194.787 382.377 193.083 376.102 193.967 375.127C194.851 374.153 198.228 378.883 201.363 385.657C204.498 392.431 206.251 398.73 205.302 399.681Z" fill="#F66262"/>
<path d="M466.595 170.681C465.63 171.655 462.318 166.925 459.199 160.151C456.08 153.377 454.376 147.102 455.26 146.127C456.144 145.153 459.521 149.883 462.656 156.657C465.791 163.431 467.544 169.73 466.595 170.681Z" fill="#F66262"/>
<path d="M242.652 184.41C241.494 184.41 240.497 179.443 240.433 173.264C240.369 167.086 241.253 162.024 242.411 162C243.568 161.976 244.565 166.967 244.629 173.169C244.694 179.372 243.809 184.386 242.652 184.41Z" fill="#F66262"/>
<path d="M249.289 84.6355C248.887 86.2514 245.044 85.6573 240.559 84.1126C236.073 82.568 232.52 80.548 232.52 78.837C232.52 77.126 236.7 76.4606 241.459 78.0766C246.218 79.6925 249.691 83.0433 249.289 84.6355Z" fill="#F66262"/>
<path d="M48.1174 390.42C48.4068 392.083 46.1077 394.412 42.9885 395.624C39.8694 396.836 37.0718 396.48 36.7824 394.84C36.493 393.2 38.7922 390.848 41.9113 389.636C45.0304 388.424 47.828 388.78 48.1174 390.42Z" fill="#F66262"/>
<path d="M101.77 287.441C102.059 289.105 99.76 291.434 96.6409 292.646C93.5217 293.858 90.7241 293.501 90.4347 291.862C90.1453 290.222 92.4445 287.869 95.5636 286.657C98.6828 285.445 101.48 285.802 101.77 287.441Z" fill="#F66262"/>
<path d="M66.0131 217.226C65.5468 218.794 62.1222 218.057 58.376 215.586C54.6298 213.114 51.9448 209.859 52.4272 208.29C52.9095 206.722 56.318 207.482 60.0642 209.93C63.8104 212.378 66.4794 215.681 66.0131 217.226Z" fill="#F66262"/>
<path d="M574.741 92.2015C574.05 90.8469 575.674 87.2348 578.375 84.1692C581.076 81.1036 583.858 79.6778 584.565 81.0323C585.272 82.3869 583.648 85.9753 580.931 89.0646C578.214 92.154 575.449 93.556 574.741 92.2015Z" fill="#F66262"/>
<path d="M445.253 76.682C444.562 75.3274 446.186 71.7152 448.887 68.6497C451.588 65.5841 454.369 64.1582 455.077 65.5128C455.784 66.8674 454.16 70.4558 451.443 73.5451C448.726 76.6344 445.96 78.0365 445.253 76.682Z" fill="#F66262"/>
<path d="M584.612 173.689C585.303 175.091 583.599 178.68 581.396 182.696C579.193 186.712 577.312 189.992 576.219 189.326C575.126 188.661 575.592 183.623 578.116 178.87C580.641 174.117 584.017 172.335 584.612 173.689Z" fill="#F66262"/>
<path d="M509.044 380.365C509.735 381.767 508.031 385.332 505.924 389.372C503.818 393.412 501.825 396.644 500.747 395.978C499.67 395.313 500.104 390.275 502.628 385.546C505.153 380.817 508.368 378.987 509.044 380.365Z" fill="#F66262"/>
<path d="M580.118 274.388C580.809 275.79 579.105 279.354 576.999 283.394C574.892 287.434 572.899 290.666 571.822 290.001C570.744 289.335 571.178 284.297 573.703 279.568C576.227 274.839 579.443 273.009 580.118 274.388Z" fill="#F66262"/>
<path d="M421.157 266.39C421.848 267.792 420.144 271.356 418.038 275.396C415.932 279.436 413.938 282.668 412.861 282.003C411.783 281.337 412.218 276.299 414.742 271.57C417.266 266.841 420.482 265.011 421.157 266.39Z" fill="#F66262"/>
<path d="M493.608 115.525C492.885 116.88 490.618 115.953 488.528 113.481C486.438 111.01 485.312 107.944 486.052 106.613C486.791 105.283 489.058 106.186 491.132 108.657C493.206 111.129 494.332 114.194 493.608 115.525Z" fill="#ADADAD"/>
<path d="M592.069 232.192C591.008 231.503 590.831 228.699 591.651 225.918C592.471 223.138 594.03 221.45 595.075 222.163C596.12 222.876 596.313 225.657 595.477 228.437C594.641 231.218 593.114 232.905 592.069 232.192Z" fill="#ADADAD"/>
<path d="M320.114 20.4341C319.166 19.4597 319.584 16.1565 321.031 13.0672C322.478 9.97784 324.439 8.31435 325.388 9.26492C326.337 10.2155 325.919 13.5425 324.472 16.6318C323.025 19.7211 321.047 21.4084 320.114 20.4341Z" fill="#ADADAD"/>
<path d="M182.147 264.3C181.922 265.988 179.365 266.677 176.439 265.798C173.513 264.918 171.326 262.898 171.616 261.211C171.905 259.524 174.397 258.835 177.323 259.738C180.249 260.641 182.372 262.566 182.147 264.3Z" fill="#ADADAD"/>
<path d="M138.717 394.877C138.492 396.564 135.936 397.253 133.009 396.374C130.083 395.495 127.896 393.475 128.186 391.787C128.475 390.1 130.967 389.411 133.894 390.314C136.82 391.217 138.942 393.142 138.717 394.877Z" fill="#ADADAD"/>
<path d="M206.276 174.924C206.05 176.612 203.494 177.301 200.568 176.422C197.642 175.542 195.455 173.522 195.744 171.835C196.034 170.148 198.526 169.459 201.452 170.362C204.378 171.265 206.501 173.19 206.276 174.924Z" fill="#ADADAD"/>
<path d="M138.717 353.885C138.492 355.573 135.936 356.262 133.009 355.383C130.083 354.503 127.896 352.483 128.186 350.796C128.475 349.109 130.967 348.42 133.894 349.323C136.82 350.226 138.942 352.151 138.717 353.885Z" fill="#F66262"/>
<path d="M27.4256 301.451C26.4188 303.143 25.1003 304.365 23.6312 304.968C19.6337 307.02 15.2601 306.774 11.3797 304.279C8.67439 302.575 6.34224 299.794 4.64299 296.246C3.73452 294.191 3.03567 291.949 2.56892 289.592C1.8657 285.636 1.79002 281.493 2.34778 277.487C2.90553 273.48 4.08167 269.718 5.78453 266.494C7.05411 264.049 8.67742 262.055 10.5357 260.657C12.394 259.259 14.4402 258.492 16.5247 258.414C18.7508 258.512 20.8674 259.864 22.4414 262.192C23.2532 263.373 23.851 264.836 24.1798 266.447C24.5085 268.058 24.5576 269.766 24.3225 271.413C23.9622 273.65 23.2091 275.706 22.1392 277.375C21.0693 279.044 19.7205 280.266 18.2289 280.919C17.3008 281.285 16.3439 281.469 15.3831 281.465C11.9046 281.21 8.60498 279.109 6.09001 275.548C3.94408 272.611 2.29233 268.973 1.2666 264.925C-0.237342 259.132 -0.406875 252.767 0.784259 246.817C1.10987 244.618 1.83211 242.589 2.8744 240.947C3.06734 241.114 2.2956 243.157 1.73286 247.173C0.995504 252.77 1.40993 258.564 2.92264 263.808C3.93973 267.391 5.5023 270.579 7.4888 273.124C9.66901 276.025 12.4677 277.707 15.3992 277.877C16.8793 277.918 18.3269 277.233 19.5152 275.928C20.7376 274.615 21.5948 272.689 21.9269 270.51C22.0754 269.453 22.0396 268.358 21.8231 267.327C21.6065 266.296 21.2162 265.363 20.6889 264.616C19.5055 263.032 17.9607 262.166 16.3639 262.192C14.6718 262.197 13.0096 262.853 11.5405 264.094C10.0555 265.308 8.73616 266.92 7.64959 268.846C5.6192 272.652 4.43428 277.291 4.25712 282.131C4.178 284.381 4.3133 286.637 4.65907 288.832C5.01397 290.856 5.55494 292.799 6.26687 294.607C7.70776 297.812 9.72277 300.362 12.0871 301.974C15.592 304.45 19.5692 305.055 23.3418 303.685C25.9946 302.591 27.313 301.166 27.4256 301.451Z" fill="#ADADAD"/>
<path d="M149.27 128.537C147.748 129.489 146.285 130.634 144.896 131.959C143.379 133.639 142.142 135.809 141.279 138.304C140.181 141.578 139.863 145.305 140.378 148.879C140.64 150.999 141.189 153.018 141.993 154.815C142.797 156.613 143.84 158.15 145.057 159.335C146.372 160.519 147.918 161.012 149.446 160.738C150.151 160.611 150.807 160.144 151.313 159.409C151.819 158.674 152.146 157.712 152.244 156.674C152.35 155.506 152.259 154.317 151.979 153.214C151.698 152.111 151.237 151.128 150.636 150.353C149.243 148.581 147.536 147.435 145.716 147.049C143.749 146.62 141.741 146.838 139.837 147.689C137.934 148.539 136.18 150.001 134.703 151.969C133.189 153.823 132.03 156.232 131.341 158.954C130.653 161.677 130.459 164.619 130.78 167.487C131.069 170.136 131.919 172.582 133.208 174.473C133.799 175.336 134.512 175.996 135.296 176.407C136.079 176.817 136.914 176.968 137.742 176.85C139.336 176.711 140.828 175.642 141.89 173.879C142.348 173.076 142.658 172.111 142.791 171.079C142.923 170.046 142.873 168.981 142.645 167.986C142.166 166.011 141.248 164.336 140.041 163.233C138.906 162.165 137.573 161.649 136.23 161.759C133.804 162.085 131.531 163.648 129.799 166.179C128.436 168.175 127.311 170.497 126.471 173.047C125.838 175.362 125.119 177.623 124.316 179.82C124.4 177.263 124.832 174.757 125.587 172.453C126.318 169.601 127.41 166.981 128.802 164.73C130.715 161.605 133.333 159.619 136.166 159.145C137.98 158.909 139.797 159.56 141.336 160.999C142.876 162.437 144.053 164.583 144.687 167.106C145.027 168.572 145.126 170.136 144.977 171.669C144.811 173.271 144.361 174.779 143.674 176.042C142.576 177.895 141.139 179.239 139.536 179.914C137.933 180.589 136.232 180.564 134.639 179.844C133.519 179.308 132.493 178.416 131.632 177.23C129.936 174.842 128.808 171.708 128.416 168.295C127.979 164.84 128.184 161.276 129.011 157.981C129.863 154.639 131.266 151.665 133.095 149.331C134.849 146.993 136.935 145.265 139.199 144.274C141.464 143.283 143.85 143.054 146.183 143.604C148.469 144.141 150.601 145.643 152.324 147.929C153.214 149.104 153.891 150.589 154.295 152.249C154.7 153.908 154.818 155.69 154.64 157.434C154.479 159.24 153.913 160.914 153.032 162.187C152.175 163.345 151.096 164.083 149.945 164.302C147.876 164.612 145.799 163.838 144.076 162.116C142.638 160.673 141.418 158.804 140.493 156.628C139.569 154.451 138.96 152.015 138.706 149.473C138.229 145.344 138.729 141.097 140.121 137.449C141.171 134.78 142.644 132.528 144.414 130.89C147.292 128.157 149.286 128.371 149.27 128.537Z" fill="#ADADAD"/>
<path d="M483.081 239.492C483.948 241.582 484.938 243.554 486.04 245.386C487.404 247.344 489.054 248.816 490.863 249.687C493.222 250.8 495.766 250.699 498.082 249.402C499.459 248.695 500.724 247.583 501.801 246.133C502.879 244.683 503.747 242.925 504.352 240.966C504.945 238.864 505.042 236.528 504.626 234.336C504.428 233.312 504.004 232.416 503.421 231.791C502.838 231.166 502.13 230.849 501.41 230.89C500.612 230.928 499.833 231.259 499.143 231.852C498.452 232.445 497.872 233.282 497.455 234.288C496.475 236.593 495.961 239.265 495.976 241.988C495.991 244.925 496.444 247.822 497.303 250.471C498.161 253.12 499.405 255.457 500.944 257.316C502.415 259.24 504.201 260.562 506.125 261.149C508.048 261.737 510.043 261.571 511.909 260.666C513.642 259.864 515.154 258.255 516.218 256.08C516.696 255.082 517.022 253.942 517.172 252.74C517.322 251.537 517.293 250.301 517.086 249.117C516.926 247.97 516.613 246.881 516.166 245.915C515.719 244.948 515.147 244.122 514.482 243.485C513.872 242.937 513.177 242.632 512.465 242.598C511.752 242.565 511.045 242.805 510.414 243.295C509.147 244.28 508.143 245.872 507.568 247.81C507.023 249.64 506.882 251.677 507.166 253.632C507.741 257.161 509.135 260.281 511.105 262.449C512.651 264.121 514.373 265.406 516.202 266.251C517.836 266.818 519.446 267.524 521.025 268.366C519.306 268.639 517.567 268.396 515.913 267.653C513.896 266.991 511.978 265.791 510.253 264.112C507.879 261.782 506.163 258.249 505.43 254.179C504.998 251.569 505.159 248.822 505.888 246.361C506.618 243.9 507.875 241.862 509.465 240.562C510.4 239.783 511.455 239.374 512.528 239.374C513.601 239.374 514.656 239.783 515.591 240.562C516.525 241.405 517.337 242.513 517.98 243.823C518.623 245.132 519.084 246.616 519.337 248.19C519.614 249.821 519.674 251.516 519.514 253.181C519.323 254.888 518.878 256.511 518.212 257.933C516.865 260.772 514.938 262.896 512.713 263.993C510.477 265.15 508.071 265.388 505.751 264.682C503.371 263.923 501.159 262.288 499.32 259.93C497.489 257.718 496.016 254.929 495.009 251.767C494.002 248.605 493.486 245.15 493.5 241.655C493.519 238.273 494.2 234.971 495.461 232.149C496.113 230.692 496.999 229.495 498.04 228.666C499.081 227.837 500.244 227.4 501.426 227.396C502.636 227.4 503.812 227.993 504.77 229.084C505.673 230.17 506.329 231.637 506.652 233.29C507.182 236.203 507.023 239.297 506.201 242.059C505.458 244.376 504.397 246.439 503.085 248.117C501.773 249.794 500.239 251.049 498.58 251.802C495.89 253.142 492.969 253.058 490.316 251.565C488.368 250.439 486.635 248.628 485.268 246.289C483.129 242.439 482.969 239.492 483.081 239.492Z" fill="#ADADAD"/>
<path d="M162.96 10.5984C163.709 12.4289 164.564 14.1568 165.515 15.7622C166.693 17.4782 168.118 18.7674 169.68 19.531C171.717 20.5057 173.914 20.4177 175.913 19.2811C177.101 18.6614 178.194 17.6869 179.124 16.4165C180.055 15.1461 180.804 13.606 181.327 11.8893C181.839 10.0478 181.922 8.00115 181.563 6.08001C181.393 5.18312 181.026 4.39805 180.523 3.85061C180.019 3.30318 179.408 3.02507 178.787 3.06083C178.097 3.09439 177.425 3.38399 176.829 3.90367C176.233 4.42336 175.732 5.15685 175.371 6.03835C174.525 8.0581 174.082 10.3991 174.094 12.7847C174.107 15.3585 174.498 17.8965 175.24 20.2178C175.981 22.5391 177.055 24.5867 178.384 26.2148C179.654 27.9009 181.196 29.059 182.857 29.5741C184.518 30.0891 186.24 29.9432 187.852 29.1507C189.348 28.4477 190.654 27.0381 191.572 25.1321C191.986 24.258 192.267 23.2594 192.396 22.2057C192.526 21.1521 192.5 20.0688 192.322 19.0313C192.184 18.0263 191.914 17.0725 191.528 16.2254C191.142 15.3782 190.647 14.6546 190.073 14.0965C189.547 13.6165 188.947 13.3488 188.332 13.3197C187.716 13.2905 187.106 13.5007 186.561 13.9299C185.467 14.7929 184.6 16.1878 184.104 17.886C183.633 19.4894 183.512 21.2745 183.757 22.9874C184.253 26.0798 185.457 28.8134 187.158 30.7124C188.493 32.1778 189.98 33.3034 191.559 34.0439C192.969 34.5408 194.36 35.1596 195.723 35.8971C194.239 36.1361 192.737 35.9236 191.309 35.2724C189.568 34.6922 187.912 33.6409 186.422 32.1699C184.372 30.1286 182.891 27.0328 182.257 23.4664C181.884 21.1797 182.024 18.7726 182.653 16.6164C183.283 14.4602 184.368 12.6747 185.742 11.5353C186.549 10.853 187.46 10.4946 188.386 10.4946C189.313 10.4946 190.224 10.853 191.031 11.5353C191.838 12.2743 192.539 13.2454 193.094 14.3925C193.649 15.5396 194.047 16.8402 194.266 18.2192C194.505 19.6481 194.557 21.1332 194.418 22.5918C194.253 24.0875 193.869 25.5097 193.294 26.7562C192.131 29.2431 190.467 31.1043 188.546 32.0658C186.616 33.0792 184.538 33.288 182.535 32.6696C180.48 32.0044 178.57 30.572 176.982 28.5053C175.401 26.5674 174.129 24.1236 173.26 21.3531C172.39 18.5825 171.945 15.5553 171.956 12.4932C171.973 9.52987 172.561 6.63714 173.65 4.16439C174.213 2.88722 174.978 1.83867 175.877 1.11211C176.775 0.385544 177.78 0.00350954 178.8 0C179.845 0.00285176 180.86 0.522464 181.688 1.47834C182.467 2.42976 183.034 3.71572 183.312 5.16384C183.77 7.71653 183.633 10.4273 182.924 12.8471C182.282 14.8774 181.366 16.6851 180.233 18.1549C179.1 19.6247 177.775 20.7245 176.343 21.3842C174.021 22.5584 171.498 22.4847 169.208 21.1759C167.526 20.1896 166.029 18.6029 164.848 16.5534C163.002 13.1803 162.863 10.5984 162.96 10.5984Z" fill="#ADADAD"/>
<path d="M193.761 347.096C194.628 349.185 195.618 351.157 196.719 352.989C198.084 354.948 199.734 356.419 201.543 357.291C203.902 358.403 206.446 358.303 208.762 357.006C210.138 356.298 211.403 355.186 212.481 353.736C213.559 352.286 214.427 350.529 215.032 348.569C215.625 346.468 215.721 344.132 215.305 341.939C215.108 340.916 214.684 340.02 214.101 339.395C213.518 338.77 212.809 338.453 212.09 338.493C211.292 338.532 210.513 338.862 209.822 339.455C209.132 340.048 208.552 340.886 208.135 341.892C207.154 344.197 206.641 346.869 206.655 349.591C206.671 352.529 207.124 355.425 207.982 358.075C208.841 360.724 210.084 363.061 211.624 364.919C213.095 366.843 214.881 368.165 216.804 368.753C218.728 369.341 220.722 369.174 222.589 368.27C224.322 367.467 225.833 365.859 226.898 363.683C227.376 362.686 227.702 361.546 227.852 360.343C228.002 359.141 227.972 357.905 227.766 356.72C227.606 355.573 227.293 354.485 226.846 353.518C226.399 352.551 225.826 351.725 225.161 351.088C224.552 350.54 223.857 350.235 223.144 350.202C222.432 350.168 221.725 350.408 221.094 350.898C219.826 351.883 218.823 353.475 218.248 355.413C217.703 357.243 217.562 359.281 217.846 361.236C218.421 364.765 219.815 367.885 221.785 370.052C223.331 371.725 225.053 373.009 226.882 373.854C228.516 374.422 230.126 375.128 231.705 375.969C229.986 376.242 228.247 376 226.592 375.256C224.576 374.594 222.658 373.394 220.933 371.716C218.558 369.386 216.843 365.853 216.109 361.782C215.678 359.172 215.839 356.425 216.568 353.964C217.297 351.503 218.554 349.466 220.145 348.165C221.08 347.387 222.135 346.977 223.208 346.977C224.281 346.977 225.336 347.387 226.271 348.165C227.205 349.009 228.017 350.117 228.66 351.426C229.302 352.735 229.764 354.22 230.017 355.794C230.294 357.424 230.354 359.119 230.194 360.784C230.002 362.491 229.558 364.114 228.891 365.537C227.545 368.375 225.617 370.499 223.393 371.597C221.157 372.753 218.751 372.992 216.431 372.286C214.051 371.527 211.839 369.892 210 367.533C208.169 365.321 206.696 362.532 205.689 359.37C204.682 356.208 204.166 352.753 204.179 349.258C204.199 345.876 204.88 342.575 206.141 339.753C206.793 338.295 207.679 337.098 208.72 336.269C209.76 335.44 210.924 335.004 212.106 335C213.316 335.003 214.491 335.596 215.45 336.687C216.353 337.773 217.009 339.241 217.331 340.893C217.862 343.807 217.703 346.901 216.881 349.662C216.138 351.98 215.077 354.043 213.765 355.72C212.453 357.398 210.918 358.653 209.26 359.406C206.57 360.746 203.649 360.662 200.996 359.168C199.048 358.042 197.315 356.232 195.947 353.892C193.809 350.043 193.648 347.096 193.761 347.096Z" fill="#ADADAD"/>
<path d="M417.18 381.447C417.872 382.849 416.167 386.414 414.061 390.454C411.955 394.494 409.961 397.726 408.884 397.06C407.807 396.395 408.241 391.357 410.765 386.628C413.289 381.899 416.505 380.069 417.18 381.447Z" fill="#F66262"/>
<path d="M124.617 447.504C124.907 449.167 122.608 451.496 119.489 452.708C116.369 453.92 113.572 453.564 113.282 451.924C112.993 450.284 115.292 447.932 118.411 446.72C121.53 445.508 124.328 445.864 124.617 447.504Z" fill="#F66262"/>
<path d="M466.856 438.447C467.547 439.849 465.843 443.414 463.737 447.454C461.631 451.494 459.637 454.726 458.56 454.06C457.483 453.395 457.917 448.357 460.441 443.628C462.965 438.899 466.181 437.069 466.856 438.447Z" fill="#ADADAD"/>
<path d="M251.593 431.41C250.436 431.41 249.439 426.443 249.374 420.264C249.31 414.086 250.194 409.024 251.352 409C252.51 408.976 253.506 413.967 253.571 420.169C253.635 426.372 252.751 431.386 251.593 431.41Z" fill="#F66262"/>
<path d="M151.855 148.166C151.855 148.357 150.987 149.141 149.154 149.402C146.52 149.727 143.887 148.785 141.645 146.717C139.953 145.133 138.537 142.983 137.512 140.439C136.486 137.896 135.881 135.032 135.745 132.078C135.543 128.511 136.051 124.934 137.208 121.788C137.855 120.065 138.749 118.573 139.828 117.416C141.016 116.14 142.462 115.502 143.928 115.61C145.439 115.676 146.878 116.575 147.964 118.129C148.5 118.937 148.902 119.917 149.139 120.993C149.376 122.069 149.441 123.211 149.331 124.331C149.131 126.383 148.468 128.276 147.449 129.702C146.493 130.966 145.309 131.792 144.041 132.078C141.828 132.59 139.563 131.987 137.61 130.367C135.981 129.038 134.574 127.187 133.494 124.949C131.925 121.79 131.101 117.959 131.146 114.041C131.227 111.332 131.693 109.954 131.822 110.001C131.95 110.049 131.822 111.498 132.127 113.97C132.424 117.465 133.389 120.762 134.909 123.475C135.916 125.256 137.165 126.705 138.574 127.729C140.125 128.873 141.883 129.255 143.591 128.822C144.416 128.575 145.175 127.981 145.777 127.111C146.381 126.238 146.771 125.093 146.887 123.856C146.945 123.291 146.911 122.714 146.788 122.172C146.665 121.631 146.456 121.141 146.179 120.743C145.536 119.855 144.695 119.347 143.816 119.317C142.876 119.351 141.962 119.769 141.173 120.524C140.384 121.279 139.752 122.342 139.346 123.594C138.397 126.116 137.951 128.983 138.06 131.864C138.128 134.354 138.574 136.788 139.364 138.989C140.155 141.189 141.269 143.099 142.626 144.578C144.545 146.592 146.805 147.776 149.154 148C150.842 148.143 151.807 147.881 151.855 148.166Z" fill="#ADADAD"/>
<path d="M314.788 103.166C314.788 103.357 313.92 104.141 312.087 104.402C309.454 104.727 306.82 103.785 304.579 101.717C302.887 100.133 301.47 97.9828 300.445 95.4395C299.42 92.8962 298.815 90.0317 298.678 87.0781C298.476 83.5106 298.985 79.9337 300.141 76.7882C300.789 75.0654 301.683 73.5729 302.762 72.4156C303.949 71.1397 305.396 70.5024 306.862 70.6095C308.373 70.6762 309.812 71.5746 310.898 73.1285C311.433 73.9368 311.835 74.9172 312.072 75.9931C312.309 77.069 312.375 78.2114 312.264 79.331C312.065 81.3835 311.402 83.2761 310.383 84.7017C309.427 85.966 308.243 86.7918 306.975 87.0781C304.762 87.5901 302.497 86.9875 300.543 85.3671C298.915 84.0384 297.508 82.1869 296.427 79.9488C294.859 76.79 294.034 72.9586 294.08 69.0411C294.16 66.332 294.627 64.9537 294.755 65.0012C294.884 65.0487 294.755 66.4983 295.061 68.9698C295.358 72.4646 296.323 75.7619 297.842 78.4755C298.85 80.2559 300.099 81.7049 301.508 82.7292C303.059 83.8726 304.816 84.2555 306.524 83.8224C307.349 83.575 308.109 82.9809 308.711 82.1114C309.315 81.2379 309.705 80.0927 309.82 78.8557C309.879 78.291 309.845 77.714 309.722 77.1725C309.599 76.631 309.39 76.1408 309.113 75.7426C308.47 74.8548 307.629 74.3473 306.749 74.3167C305.81 74.3514 304.895 74.7693 304.107 75.5242C303.318 76.279 302.686 77.3416 302.28 78.5943C301.33 81.1157 300.885 83.9833 300.993 86.8642C301.062 89.3535 301.508 91.7883 302.298 93.9889C303.088 96.1894 304.203 98.0995 305.56 99.578C307.479 101.592 309.739 102.776 312.087 103C313.776 103.143 314.74 102.881 314.788 103.166Z" fill="#ADADAD"/>
</svg>
