<svg width="176" height="176" viewBox="0 0 176 176" fill="none" xmlns="http://www.w3.org/2000/svg">
<path d="M90 176C137.496 176 176 137.496 176 90C176 42.5035 137.496 4 90 4C42.5035 4 4 42.5035 4 90C4 137.496 42.5035 176 90 176Z" fill="#00BA88"/>
<path d="M41.7378 94.2166C40.1049 92.6678 40.0707 90.0773 41.662 88.4859L49.3982 80.7498C50.8957 79.2523 53.3009 79.1815 54.8839 80.5884L74.9711 98.4415C76.5318 99.8286 78.8969 99.7819 80.4016 98.3343L125.201 55.234C126.813 53.6835 129.383 53.7556 130.905 55.3939L137.793 62.8078C139.29 64.4188 139.205 66.9359 137.604 68.4431L78.6011 123.979C77.0566 125.433 74.6459 125.429 73.1069 123.969L41.7378 94.2166Z" fill="white"/>
</svg>
